<?xml version="1.0" encoding="utf-8"?>
<!-- Generator: Adobe Illustrator 17.0.0, SVG Export Plug-In . SVG Version: 6.00 Build 0)  -->
<!DOCTYPE svg PUBLIC "-//W3C//DTD SVG 1.1//EN" "http://www.w3.org/Graphics/SVG/1.1/DTD/svg11.dtd">
<svg version="1.1" id="Capa_1" xmlns="http://www.w3.org/2000/svg" xmlns:xlink="http://www.w3.org/1999/xlink" x="0px" y="0px"
	 width="400.523px" height="240.999px" viewBox="0 0 400.523 240.999" enable-background="new 0 0 400.523 240.999"
	 xml:space="preserve">
<path fill="#211915" d="M445.206,250.658c-0.008,0-0.023,0.039-0.034,0.056c0.008,0.014,0.034,0.039,0.034,0.049V250.658z"/>
<g>
	<path fill="#211915" d="M59.851,234.804v0.534c0,0.328-0.039,0.737-0.12,1.216c-0.08,0.479-0.216,0.983-0.41,1.509
		c-0.196,0.526-0.487,0.993-0.876,1.403c-0.891,0.941-2.124,1.408-3.704,1.408c-1.575,0-2.777-0.467-3.599-1.408
		c-0.411-0.432-0.715-0.901-0.909-1.403c-0.195-0.505-0.326-0.978-0.393-1.424c-0.069-0.444-0.098-0.828-0.087-1.148
		c0.012-0.321,0.018-0.515,0.018-0.584v-14.092c0-1.828,0.548-3.256,1.644-4.284c0.437-0.39,0.944-0.7,1.528-0.927
		c0.582-0.229,1.183-0.342,1.798-0.342c1.236,0,2.356,0.411,3.36,1.234c0.572,0.481,1.014,1.136,1.321,1.972
		c0.309,0.833,0.462,1.742,0.462,2.726H59.13c0-0.893-0.131-1.668-0.392-2.332c-0.264-0.662-0.608-1.207-1.03-1.629
		c-0.423-0.423-0.897-0.737-1.424-0.945c-0.524-0.204-1.04-0.307-1.543-0.307c-0.526,0-1.043,0.095-1.558,0.294
		c-0.515,0.192-0.972,0.481-1.371,0.872c-0.401,0.39-0.722,0.89-0.961,1.508c-0.241,0.618-0.36,1.337-0.36,2.16v14.127v0.034
		c0,0.57,0.027,1.059,0.085,1.457c0.056,0.401,0.172,0.83,0.345,1.286c0.169,0.457,0.428,0.87,0.769,1.236
		c0.732,0.799,1.747,1.199,3.051,1.199c1.349,0,2.4-0.4,3.155-1.199c0.344-0.366,0.6-0.783,0.772-1.253
		c0.172-0.468,0.29-0.919,0.359-1.353c0.07-0.435,0.103-0.95,0.103-1.545H59.851z"/>
	<path fill="none" stroke="#211915" stroke-width="0.25" stroke-miterlimit="10" d="M59.851,234.804v0.534
		c0,0.328-0.039,0.737-0.12,1.216c-0.08,0.479-0.216,0.983-0.41,1.509c-0.196,0.526-0.487,0.993-0.876,1.403
		c-0.891,0.941-2.124,1.408-3.704,1.408c-1.575,0-2.777-0.467-3.599-1.408c-0.411-0.432-0.715-0.901-0.909-1.403
		c-0.195-0.505-0.326-0.978-0.393-1.424c-0.069-0.444-0.098-0.828-0.087-1.148c0.012-0.321,0.018-0.515,0.018-0.584v-14.092
		c0-1.828,0.548-3.256,1.644-4.284c0.437-0.39,0.944-0.7,1.528-0.927c0.582-0.229,1.183-0.342,1.798-0.342
		c1.236,0,2.356,0.411,3.36,1.234c0.572,0.481,1.014,1.136,1.321,1.972c0.309,0.833,0.462,1.742,0.462,2.726H59.13
		c0-0.893-0.131-1.668-0.392-2.332c-0.264-0.662-0.608-1.207-1.03-1.629c-0.423-0.423-0.897-0.737-1.424-0.945
		c-0.524-0.204-1.04-0.307-1.543-0.307c-0.526,0-1.043,0.095-1.558,0.294c-0.515,0.192-0.972,0.481-1.371,0.872
		c-0.401,0.39-0.722,0.89-0.961,1.508c-0.241,0.618-0.36,1.337-0.36,2.16v14.127v0.034c0,0.57,0.027,1.059,0.085,1.457
		c0.056,0.401,0.172,0.83,0.345,1.286c0.169,0.457,0.428,0.87,0.769,1.236c0.732,0.799,1.747,1.199,3.051,1.199
		c1.349,0,2.4-0.4,3.155-1.199c0.344-0.366,0.6-0.783,0.772-1.253c0.172-0.468,0.29-0.919,0.359-1.353
		c0.07-0.435,0.103-0.95,0.103-1.545H59.851z"/>
	<path fill="#211915" d="M72.296,229.734c-0.252,0.044-0.51,0.071-0.77,0.084c-0.264,0.01-0.544,0.015-0.843,0.015h-3.222v10.664
		h-0.375h-0.344v-24.515v-0.409h0.41h3.531c1.236,0,2.269,0.191,3.104,0.581c0.835,0.389,1.481,0.937,1.938,1.646
		c0.434,0.686,0.77,1.458,1.011,2.315c0.241,0.857,0.362,1.72,0.362,2.588c0,0.89-0.121,1.767-0.362,2.62
		c-0.241,0.859-0.577,1.622-1.011,2.283c-0.32,0.504-0.698,0.925-1.132,1.27c-0.434,0.341-0.983,0.582-1.646,0.718L72.296,229.734z
		 M75.109,227.222c0.387-0.618,0.696-1.321,0.923-2.113c0.231-0.791,0.344-1.598,0.344-2.425c0-0.802-0.113-1.599-0.344-2.386
		c-0.227-0.795-0.536-1.499-0.923-2.117c-0.388-0.594-0.95-1.059-1.681-1.394c-0.733-0.328-1.646-0.498-2.745-0.498h-3.222v12.824
		h3.222c1.328,0,2.299-0.165,2.916-0.497C74.216,228.282,74.721,227.82,75.109,227.222 M72.947,229.594l4.766,10.868h-0.754
		l-4.697-10.728L72.947,229.594z"/>
	<path fill="none" stroke="#211915" stroke-width="0.25" stroke-miterlimit="10" d="M72.296,229.734
		c-0.252,0.044-0.51,0.071-0.77,0.084c-0.264,0.01-0.544,0.015-0.843,0.015h-3.222v10.664h-0.375h-0.344v-24.515v-0.409h0.41h3.531
		c1.236,0,2.269,0.191,3.104,0.581c0.835,0.389,1.481,0.937,1.938,1.646c0.434,0.686,0.77,1.458,1.011,2.315
		c0.241,0.857,0.362,1.72,0.362,2.588c0,0.89-0.121,1.767-0.362,2.62c-0.241,0.859-0.577,1.622-1.011,2.283
		c-0.32,0.504-0.698,0.925-1.132,1.27c-0.434,0.341-0.983,0.582-1.646,0.718L72.296,229.734z M75.109,227.222
		c0.387-0.618,0.696-1.321,0.923-2.113c0.231-0.791,0.344-1.598,0.344-2.425c0-0.802-0.113-1.599-0.344-2.386
		c-0.227-0.795-0.536-1.499-0.923-2.117c-0.388-0.594-0.95-1.059-1.681-1.394c-0.733-0.328-1.646-0.498-2.745-0.498h-3.222v12.824
		h3.222c1.328,0,2.299-0.165,2.916-0.497C74.216,228.282,74.721,227.82,75.109,227.222z M72.947,229.594l4.766,10.868h-0.754
		l-4.697-10.728L72.947,229.594z"/>
	<polygon fill="#211915" points="93.075,239.845 93.075,240.155 93.075,240.497 83.405,240.497 83.405,240.155 83.405,215.949 
		83.405,215.573 92.936,215.573 92.936,215.949 92.936,216.222 84.127,216.222 84.127,229.183 91.017,229.183 91.017,229.526 
		91.017,229.833 84.127,229.833 84.127,239.845 	"/>
	<polygon fill="none" stroke="#211915" stroke-width="0.25" stroke-miterlimit="10" points="93.075,239.845 93.075,240.155 
		93.075,240.497 83.405,240.497 83.405,240.155 83.405,215.949 83.405,215.573 92.936,215.573 92.936,215.949 92.936,216.222 
		84.127,216.222 84.127,229.183 91.017,229.183 91.017,229.526 91.017,229.833 84.127,229.833 84.127,239.845 	"/>
	<path fill="#211915" d="M108.846,240.497h-0.755l-1.542-7.509h-5.966l-1.613,7.509h-0.754l5.039-24.925h0.584L108.846,240.497z
		 M106.343,232.268l-2.779-14.81l-2.878,14.81H106.343z M103.427,215.572h0.034h0.071h0.032h0.036h0.07H103.427z"/>
	<path fill="none" stroke="#211915" stroke-width="0.25" stroke-miterlimit="10" d="M108.846,240.497h-0.755l-1.542-7.509h-5.966
		l-1.613,7.509h-0.754l5.039-24.925h0.584L108.846,240.497z M106.343,232.268l-2.779-14.81l-2.878,14.81H106.343z M103.427,215.572
		h0.034h0.071h0.032h0.036h0.07H103.427z"/>
	<polygon fill="#211915" points="117.931,216.256 112.242,216.256 112.242,215.948 112.242,215.605 124.241,215.605 
		124.241,215.948 124.241,216.289 124.274,216.256 118.651,216.256 118.651,240.497 118.275,240.497 117.931,240.497 	"/>
	<polygon fill="none" stroke="#211915" stroke-width="0.25" stroke-miterlimit="10" points="117.931,216.256 112.242,216.256 
		112.242,215.948 112.242,215.605 124.241,215.605 124.241,215.948 124.241,216.289 124.274,216.256 118.651,216.256 
		118.651,240.497 118.275,240.497 117.931,240.497 	"/>
	<polygon fill="#211915" points="129.898,240.497 129.898,215.572 130.259,215.572 130.617,215.572 130.617,240.497 
		130.259,240.497 	"/>
	<polygon fill="none" stroke="#211915" stroke-width="0.25" stroke-miterlimit="10" points="129.898,240.497 129.898,215.572 
		130.259,215.572 130.617,215.572 130.617,240.497 130.259,240.497 	"/>
	<polygon fill="#211915" points="147.075,215.709 147.83,215.709 142.789,240.36 142.495,240.36 142.43,240.36 142.363,240.36 
		142.069,240.36 137.03,215.709 137.783,215.709 142.446,238.682 	"/>
	<polygon fill="none" stroke="#211915" stroke-width="0.25" stroke-miterlimit="10" points="147.075,215.709 147.83,215.709 
		142.789,240.36 142.495,240.36 142.43,240.36 142.363,240.36 142.069,240.36 137.03,215.709 137.783,215.709 142.446,238.682 	"/>
	<path fill="#211915" d="M164.08,235.115v0.547c0,0.297-0.047,0.657-0.135,1.081c-0.092,0.421-0.236,0.874-0.43,1.354
		s-0.486,0.925-0.874,1.336c-0.457,0.458-1.104,0.805-1.938,1.046c-0.835,0.242-1.641,0.36-2.417,0.36
		c-0.777,0-1.577-0.118-2.401-0.36c-0.822-0.241-1.45-0.588-1.886-1.046c-0.388-0.411-0.68-0.868-0.872-1.37
		c-0.197-0.505-0.327-0.978-0.395-1.424c-0.07-0.444-0.104-0.828-0.104-1.148v-0.584V220.85c0-0.914,0.132-1.729,0.393-2.45
		c0.265-0.721,0.682-1.333,1.254-1.834c0.227-0.206,0.509-0.39,0.839-0.55c0.332-0.16,0.68-0.29,1.047-0.394
		c0.365-0.102,0.732-0.181,1.095-0.242c0.365-0.055,0.709-0.085,1.03-0.085c0.296,0,0.633,0.024,1.011,0.069
		c0.376,0.047,0.754,0.121,1.13,0.224c0.379,0.103,0.732,0.228,1.064,0.376c0.332,0.151,0.613,0.324,0.842,0.532
		c1.164,1.029,1.747,2.479,1.747,4.354V235.115z M163.361,220.85c0-0.801-0.11-1.485-0.326-2.057
		c-0.219-0.571-0.497-1.054-0.841-1.439c-0.228-0.232-0.509-0.431-0.84-0.603c-0.331-0.17-0.672-0.311-1.028-0.426
		c-0.355-0.114-0.715-0.196-1.082-0.241c-0.364-0.048-0.685-0.068-0.958-0.068c-0.525,0-1.082,0.061-1.664,0.189
		c-0.583,0.125-1.114,0.368-1.593,0.718c-0.481,0.357-0.875,0.847-1.185,1.477c-0.307,0.627-0.462,1.443-0.462,2.45v14.092
		c-0.023,0.572,0,1.062,0.068,1.474c0.07,0.413,0.182,0.847,0.344,1.303c0.162,0.457,0.412,0.87,0.754,1.236
		c0.366,0.386,0.914,0.679,1.646,0.874c0.732,0.194,1.427,0.292,2.092,0.292c0.343,0,0.698-0.021,1.062-0.072
		c0.366-0.042,0.725-0.118,1.079-0.22c0.357-0.103,0.683-0.229,0.979-0.378c0.297-0.149,0.536-0.326,0.72-0.531
		c0.342-0.368,0.596-0.763,0.753-1.201c0.161-0.432,0.275-0.84,0.344-1.218c0.068-0.375,0.102-0.828,0.102-1.354L163.361,220.85z"/>
	<path fill="none" stroke="#211915" stroke-width="0.25" stroke-miterlimit="10" d="M164.08,235.115v0.547
		c0,0.297-0.047,0.657-0.135,1.081c-0.092,0.421-0.236,0.874-0.43,1.354s-0.486,0.925-0.874,1.336
		c-0.457,0.458-1.104,0.805-1.938,1.046c-0.835,0.242-1.641,0.36-2.417,0.36c-0.777,0-1.577-0.118-2.401-0.36
		c-0.822-0.241-1.45-0.588-1.886-1.046c-0.388-0.411-0.68-0.868-0.872-1.37c-0.197-0.505-0.327-0.978-0.395-1.424
		c-0.07-0.444-0.104-0.828-0.104-1.148v-0.584V220.85c0-0.914,0.132-1.729,0.393-2.45c0.265-0.721,0.682-1.333,1.254-1.834
		c0.227-0.206,0.509-0.39,0.839-0.55c0.332-0.16,0.68-0.29,1.047-0.394c0.365-0.102,0.732-0.181,1.095-0.242
		c0.365-0.055,0.709-0.085,1.03-0.085c0.296,0,0.633,0.024,1.011,0.069c0.376,0.047,0.754,0.121,1.13,0.224
		c0.379,0.103,0.732,0.228,1.064,0.376c0.332,0.151,0.613,0.324,0.842,0.532c1.164,1.029,1.747,2.479,1.747,4.354V235.115z
		 M163.361,220.85c0-0.801-0.11-1.485-0.326-2.057c-0.219-0.571-0.497-1.054-0.841-1.439c-0.228-0.232-0.509-0.431-0.84-0.603
		c-0.331-0.17-0.672-0.311-1.028-0.426c-0.355-0.114-0.715-0.196-1.082-0.241c-0.364-0.048-0.685-0.068-0.958-0.068
		c-0.525,0-1.082,0.061-1.664,0.189c-0.583,0.125-1.114,0.368-1.593,0.718c-0.481,0.357-0.875,0.847-1.185,1.477
		c-0.307,0.627-0.462,1.443-0.462,2.45v14.092c-0.023,0.572,0,1.062,0.068,1.474c0.07,0.413,0.182,0.847,0.344,1.303
		c0.162,0.457,0.412,0.87,0.754,1.236c0.366,0.386,0.914,0.679,1.646,0.874c0.732,0.194,1.427,0.292,2.092,0.292
		c0.343,0,0.698-0.021,1.062-0.072c0.366-0.042,0.725-0.118,1.079-0.22c0.357-0.103,0.683-0.229,0.979-0.378
		c0.297-0.149,0.536-0.326,0.72-0.531c0.342-0.368,0.596-0.763,0.753-1.201c0.161-0.432,0.275-0.84,0.344-1.218
		c0.068-0.375,0.102-0.828,0.102-1.354L163.361,220.85z"/>
	<path fill="#211915" d="M192.473,217.799c0.434,0.686,0.769,1.458,1.011,2.316c0.239,0.856,0.356,1.719,0.356,2.587
		c0,0.89-0.117,1.767-0.356,2.621c-0.242,0.858-0.577,1.621-1.011,2.282c-0.484,0.732-1.099,1.283-1.856,1.662
		c-0.754,0.379-1.816,0.565-3.188,0.565h-3.223v10.664h-0.375h-0.342v-24.515v-0.409h0.411h3.529c1.238,0,2.27,0.191,3.106,0.581
		C191.366,216.542,192.012,217.09,192.473,217.799 M191.852,227.221c0.39-0.618,0.699-1.321,0.929-2.113
		c0.228-0.791,0.339-1.598,0.339-2.425c0-0.802-0.111-1.599-0.339-2.386c-0.23-0.795-0.539-1.499-0.929-2.117
		c-0.388-0.594-0.946-1.059-1.68-1.394c-0.732-0.328-1.646-0.498-2.743-0.498h-3.223v12.824h3.223c1.325,0,2.297-0.165,2.914-0.496
		C190.965,228.282,191.464,227.819,191.852,227.221"/>
	<path fill="none" stroke="#211915" stroke-width="0.25" stroke-miterlimit="10" d="M192.473,217.799
		c0.434,0.686,0.769,1.458,1.011,2.316c0.239,0.856,0.356,1.719,0.356,2.587c0,0.89-0.117,1.767-0.356,2.621
		c-0.242,0.858-0.577,1.621-1.011,2.282c-0.484,0.732-1.099,1.283-1.856,1.662c-0.754,0.379-1.816,0.565-3.188,0.565h-3.223v10.664
		h-0.375h-0.342v-24.515v-0.409h0.411h3.529c1.238,0,2.27,0.191,3.106,0.581C191.366,216.542,192.012,217.09,192.473,217.799z
		 M191.852,227.221c0.39-0.618,0.699-1.321,0.929-2.113c0.228-0.791,0.339-1.598,0.339-2.425c0-0.802-0.111-1.599-0.339-2.386
		c-0.23-0.795-0.539-1.499-0.929-2.117c-0.388-0.594-0.946-1.059-1.68-1.394c-0.732-0.328-1.646-0.498-2.743-0.498h-3.223v12.824
		h3.223c1.325,0,2.297-0.165,2.914-0.496C190.965,228.282,191.464,227.819,191.852,227.221z"/>
	<path fill="#211915" d="M210.505,234.942v0.516c0,0.295-0.046,0.657-0.137,1.079c-0.09,0.424-0.235,0.873-0.428,1.355
		c-0.196,0.48-0.485,0.922-0.873,1.334c-0.865,0.941-2.082,1.408-3.653,1.408c-1.527,0-2.727-0.467-3.59-1.408
		c-0.386-0.412-0.675-0.866-0.871-1.37c-0.196-0.502-0.325-0.977-0.394-1.423c-0.065-0.443-0.101-0.829-0.101-1.147v-0.584v-19.27
		h0.362h0.356v19.304v0.034v0.738c0,0.241,0.023,0.476,0.071,0.705c0.047,0.409,0.157,0.839,0.327,1.283
		c0.172,0.445,0.43,0.864,0.775,1.25c0.71,0.779,1.729,1.168,3.065,1.168c1.353,0,2.407-0.4,3.165-1.201
		c0.321-0.365,0.566-0.758,0.738-1.183c0.176-0.421,0.293-0.828,0.364-1.216c0.048-0.228,0.074-0.45,0.087-0.67
		c0.011-0.215,0.015-0.438,0.015-0.668v-0.034v-19.51h0.358h0.364V234.942z"/>
	<path fill="none" stroke="#211915" stroke-width="0.25" stroke-miterlimit="10" d="M210.505,234.942v0.516
		c0,0.295-0.046,0.657-0.137,1.079c-0.09,0.424-0.235,0.873-0.428,1.355c-0.196,0.48-0.485,0.922-0.873,1.334
		c-0.865,0.941-2.082,1.408-3.653,1.408c-1.527,0-2.727-0.467-3.59-1.408c-0.386-0.412-0.675-0.866-0.871-1.37
		c-0.196-0.502-0.325-0.977-0.394-1.423c-0.065-0.443-0.101-0.829-0.101-1.147v-0.584v-19.27h0.362h0.356v19.304v0.034v0.738
		c0,0.241,0.023,0.476,0.071,0.705c0.047,0.409,0.157,0.839,0.327,1.283c0.172,0.445,0.43,0.864,0.775,1.25
		c0.71,0.779,1.729,1.168,3.065,1.168c1.353,0,2.407-0.4,3.165-1.201c0.321-0.365,0.566-0.758,0.738-1.183
		c0.176-0.421,0.293-0.828,0.364-1.216c0.048-0.228,0.074-0.45,0.087-0.67c0.011-0.215,0.015-0.438,0.015-0.668v-0.034v-19.51h0.358
		h0.364V234.942z"/>
	<path fill="#211915" d="M225.041,217.354c0.845,1.255,1.259,2.662,1.235,4.215c0,0.734-0.086,1.413-0.258,2.042
		c-0.171,0.628-0.398,1.19-0.684,1.678c-0.288,0.495-0.613,0.898-0.979,1.218c-0.366,0.322-0.755,0.548-1.166,0.685
		c0.482,0.068,1.001,0.265,1.56,0.586c0.562,0.319,1.001,0.708,1.32,1.165c0.458,0.664,0.802,1.399,1.031,2.21
		c0.227,0.811,0.341,1.664,0.341,2.552c0,1.489-0.212,2.676-0.633,3.569c-0.422,0.891-0.95,1.575-1.579,2.056
		c-0.628,0.479-1.312,0.801-2.058,0.959c-0.74,0.162-1.453,0.242-2.14,0.242h-3.534h-0.408v-24.995h4.316
		c0.988,0,1.737,0.161,2.266,0.48C224.198,216.335,224.651,216.781,225.041,217.354 M217.806,226.884h3.875
		c0.571,0,1.099-0.14,1.579-0.43c0.477-0.285,0.891-0.674,1.234-1.169c0.342-0.492,0.606-1.06,0.786-1.704
		c0.184-0.64,0.278-1.316,0.278-2.029c0-0.71-0.102-1.384-0.294-2.028c-0.195-0.64-0.46-1.202-0.804-1.686
		c-0.345-0.481-0.742-0.866-1.2-1.153c-0.457-0.286-0.961-0.43-1.512-0.43h-3.942V226.884z M221.031,239.809
		c1.121,0,2.051-0.163,2.793-0.496c0.742-0.33,1.332-0.775,1.765-1.334c0.437-0.565,0.737-1.214,0.91-1.958
		c0.173-0.741,0.247-1.513,0.223-2.316c-0.042-2.099-0.52-3.644-1.422-4.625c-0.903-0.983-2.324-1.475-4.269-1.475h-3.225v12.204
		H221.031z"/>
	<path fill="none" stroke="#211915" stroke-width="0.25" stroke-miterlimit="10" d="M225.041,217.354
		c0.845,1.255,1.259,2.662,1.235,4.215c0,0.734-0.086,1.413-0.258,2.042c-0.171,0.628-0.398,1.19-0.684,1.678
		c-0.288,0.495-0.613,0.898-0.979,1.218c-0.366,0.322-0.755,0.548-1.166,0.685c0.482,0.068,1.001,0.265,1.56,0.586
		c0.562,0.319,1.001,0.708,1.32,1.165c0.458,0.664,0.802,1.399,1.031,2.21c0.227,0.811,0.341,1.664,0.341,2.552
		c0,1.489-0.212,2.676-0.633,3.569c-0.422,0.891-0.95,1.575-1.579,2.056c-0.628,0.479-1.312,0.801-2.058,0.959
		c-0.74,0.162-1.453,0.242-2.14,0.242h-3.534h-0.408v-24.995h4.316c0.988,0,1.737,0.161,2.266,0.48
		C224.198,216.335,224.651,216.781,225.041,217.354z M217.806,226.884h3.875c0.571,0,1.099-0.14,1.579-0.43
		c0.477-0.285,0.891-0.674,1.234-1.169c0.342-0.492,0.606-1.06,0.786-1.704c0.184-0.64,0.278-1.316,0.278-2.029
		c0-0.71-0.102-1.384-0.294-2.028c-0.195-0.64-0.46-1.202-0.804-1.686c-0.345-0.481-0.742-0.866-1.2-1.153
		c-0.457-0.286-0.961-0.43-1.512-0.43h-3.942V226.884z M221.031,239.809c1.121,0,2.051-0.163,2.793-0.496
		c0.742-0.33,1.332-0.775,1.765-1.334c0.437-0.565,0.737-1.214,0.91-1.958c0.173-0.741,0.247-1.513,0.223-2.316
		c-0.042-2.099-0.52-3.644-1.422-4.625c-0.903-0.983-2.324-1.475-4.269-1.475h-3.225v12.204H221.031z"/>
	<polygon fill="#211915" points="234.539,240.497 234.539,240.154 234.539,215.572 234.899,215.572 235.263,215.572 
		235.263,239.845 244.447,239.845 244.447,240.154 244.447,240.497 	"/>
	<polygon fill="none" stroke="#211915" stroke-width="0.25" stroke-miterlimit="10" points="234.539,240.497 234.539,240.154 
		234.539,215.572 234.899,215.572 235.263,215.572 235.263,239.845 244.447,239.845 244.447,240.154 244.447,240.497 	"/>
	<polygon fill="#211915" points="252.128,240.497 252.128,215.572 252.486,215.572 252.847,215.572 252.847,240.497 
		252.486,240.497 	"/>
	<polygon fill="none" stroke="#211915" stroke-width="0.25" stroke-miterlimit="10" points="252.128,240.497 252.128,215.572 
		252.486,215.572 252.847,215.572 252.847,240.497 252.486,240.497 	"/>
	<path fill="#211915" d="M270.095,234.804v0.534c0,0.328-0.039,0.737-0.117,1.216c-0.083,0.479-0.219,0.983-0.416,1.509
		c-0.196,0.526-0.483,0.993-0.87,1.403c-0.895,0.941-2.131,1.408-3.703,1.408c-1.578,0-2.782-0.467-3.602-1.408
		c-0.411-0.432-0.715-0.901-0.91-1.403c-0.193-0.505-0.325-0.978-0.396-1.424c-0.067-0.444-0.098-0.828-0.086-1.148
		c0.012-0.321,0.019-0.515,0.019-0.584v-14.092c0-1.828,0.548-3.256,1.644-4.284c0.435-0.39,0.942-0.7,1.529-0.927
		c0.582-0.229,1.18-0.342,1.802-0.342c1.235,0,2.35,0.411,3.358,1.234c0.572,0.481,1.012,1.136,1.317,1.972
		c0.314,0.833,0.464,1.742,0.464,2.726h-0.753c0-0.893-0.134-1.668-0.394-2.332c-0.266-0.662-0.607-1.207-1.031-1.629
		c-0.419-0.423-0.895-0.737-1.419-0.945c-0.527-0.204-1.043-0.307-1.542-0.307c-0.527,0-1.048,0.095-1.562,0.294
		c-0.518,0.192-0.974,0.481-1.373,0.872c-0.399,0.39-0.718,0.89-0.961,1.508c-0.239,0.618-0.36,1.337-0.36,2.16v14.127v0.034
		c0,0.57,0.031,1.059,0.086,1.457c0.059,0.401,0.172,0.83,0.344,1.286c0.173,0.457,0.431,0.87,0.773,1.236
		c0.726,0.799,1.747,1.199,3.053,1.199c1.347,0,2.398-0.4,3.153-1.199c0.342-0.366,0.6-0.783,0.768-1.253
		c0.173-0.468,0.292-0.919,0.362-1.353c0.067-0.435,0.103-0.95,0.103-1.545H270.095z"/>
	<path fill="none" stroke="#211915" stroke-width="0.25" stroke-miterlimit="10" d="M270.095,234.804v0.534
		c0,0.328-0.039,0.737-0.117,1.216c-0.083,0.479-0.219,0.983-0.416,1.509c-0.196,0.526-0.483,0.993-0.87,1.403
		c-0.895,0.941-2.131,1.408-3.703,1.408c-1.578,0-2.782-0.467-3.602-1.408c-0.411-0.432-0.715-0.901-0.91-1.403
		c-0.193-0.505-0.325-0.978-0.396-1.424c-0.067-0.444-0.098-0.828-0.086-1.148c0.012-0.321,0.019-0.515,0.019-0.584v-14.092
		c0-1.828,0.548-3.256,1.644-4.284c0.435-0.39,0.942-0.7,1.529-0.927c0.582-0.229,1.18-0.342,1.802-0.342
		c1.235,0,2.35,0.411,3.358,1.234c0.572,0.481,1.012,1.136,1.317,1.972c0.314,0.833,0.464,1.742,0.464,2.726h-0.753
		c0-0.893-0.134-1.668-0.394-2.332c-0.266-0.662-0.607-1.207-1.031-1.629c-0.419-0.423-0.895-0.737-1.419-0.945
		c-0.527-0.204-1.043-0.307-1.542-0.307c-0.527,0-1.048,0.095-1.562,0.294c-0.518,0.192-0.974,0.481-1.373,0.872
		c-0.399,0.39-0.718,0.89-0.961,1.508c-0.239,0.618-0.36,1.337-0.36,2.16v14.127v0.034c0,0.57,0.031,1.059,0.086,1.457
		c0.059,0.401,0.172,0.83,0.344,1.286c0.173,0.457,0.431,0.87,0.773,1.236c0.726,0.799,1.747,1.199,3.053,1.199
		c1.347,0,2.398-0.4,3.153-1.199c0.342-0.366,0.6-0.783,0.768-1.253c0.173-0.468,0.292-0.919,0.362-1.353
		c0.067-0.435,0.103-0.95,0.103-1.545H270.095z"/>
	<polygon fill="#211915" points="277.227,240.497 277.227,215.572 277.587,215.572 277.942,215.572 277.942,240.497 
		277.587,240.497 	"/>
	<polygon fill="none" stroke="#211915" stroke-width="0.25" stroke-miterlimit="10" points="277.227,240.497 277.227,215.572 
		277.587,215.572 277.942,215.572 277.942,240.497 277.587,240.497 	"/>
	<polygon fill="#211915" points="289.016,216.256 283.329,216.256 283.329,215.948 283.329,215.605 295.331,215.605 
		295.331,215.948 295.331,216.289 295.363,216.256 289.741,216.256 289.741,240.497 289.361,240.497 289.016,240.497 	"/>
	<polygon fill="none" stroke="#211915" stroke-width="0.25" stroke-miterlimit="10" points="289.016,216.256 283.329,216.256 
		283.329,215.948 283.329,215.605 295.331,215.605 295.331,215.948 295.331,216.289 295.363,216.256 289.741,216.256 
		289.741,240.497 289.361,240.497 289.016,240.497 	"/>
	<path fill="#211915" d="M309.691,240.497h-0.753l-1.543-7.509h-5.963l-1.612,7.509h-0.753l5.037-24.925h0.583L309.691,240.497z
		 M307.191,232.268l-2.777-14.81l-2.88,14.81H307.191z M304.277,215.572h0.034h0.067h0.036h0.034h0.067H304.277z"/>
	<path fill="none" stroke="#211915" stroke-width="0.25" stroke-miterlimit="10" d="M309.691,240.497h-0.753l-1.543-7.509h-5.963
		l-1.612,7.509h-0.753l5.037-24.925h0.583L309.691,240.497z M307.191,232.268l-2.777-14.81l-2.88,14.81H307.191z M304.277,215.572
		h0.034h0.067h0.036h0.034h0.067H304.277z"/>
	<path fill="#211915" d="M320.803,229.734c-0.251,0.044-0.509,0.071-0.771,0.084c-0.264,0.01-0.542,0.015-0.84,0.015h-3.221v10.664
		h-0.381h-0.344v-24.515v-0.409h0.415h3.531c1.235,0,2.266,0.191,3.103,0.581c0.836,0.389,1.479,0.937,1.937,1.646
		c0.433,0.686,0.769,1.458,1.013,2.315c0.238,0.857,0.358,1.72,0.358,2.588c0,0.89-0.12,1.767-0.358,2.62
		c-0.244,0.859-0.58,1.622-1.013,2.283c-0.324,0.504-0.698,0.925-1.133,1.27c-0.432,0.341-0.985,0.582-1.644,0.718L320.803,229.734z
		 M323.612,227.222c0.389-0.618,0.699-1.321,0.93-2.113c0.225-0.791,0.342-1.598,0.342-2.425c0-0.802-0.117-1.599-0.342-2.386
		c-0.231-0.795-0.541-1.499-0.93-2.117c-0.387-0.594-0.945-1.059-1.678-1.394c-0.733-0.328-1.647-0.498-2.742-0.498h-3.221v12.824
		h3.221c1.325,0,2.298-0.165,2.91-0.497C322.725,228.282,323.225,227.82,323.612,227.222 M321.455,229.594l4.766,10.868h-0.753
		l-4.7-10.728L321.455,229.594z"/>
	<path fill="none" stroke="#211915" stroke-width="0.25" stroke-miterlimit="10" d="M320.803,229.734
		c-0.251,0.044-0.509,0.071-0.771,0.084c-0.264,0.01-0.542,0.015-0.84,0.015h-3.221v10.664h-0.381h-0.344v-24.515v-0.409h0.415
		h3.531c1.235,0,2.266,0.191,3.103,0.581c0.836,0.389,1.479,0.937,1.937,1.646c0.433,0.686,0.769,1.458,1.013,2.315
		c0.238,0.857,0.358,1.72,0.358,2.588c0,0.89-0.12,1.767-0.358,2.62c-0.244,0.859-0.58,1.622-1.013,2.283
		c-0.324,0.504-0.698,0.925-1.133,1.27c-0.432,0.341-0.985,0.582-1.644,0.718L320.803,229.734z M323.612,227.222
		c0.389-0.618,0.699-1.321,0.93-2.113c0.225-0.791,0.342-1.598,0.342-2.425c0-0.802-0.117-1.599-0.342-2.386
		c-0.231-0.795-0.541-1.499-0.93-2.117c-0.387-0.594-0.945-1.059-1.678-1.394c-0.733-0.328-1.647-0.498-2.742-0.498h-3.221v12.824
		h3.221c1.325,0,2.298-0.165,2.91-0.497C322.725,228.282,323.225,227.82,323.612,227.222z M321.455,229.594l4.766,10.868h-0.753
		l-4.7-10.728L321.455,229.594z"/>
	<polygon fill="#211915" points="332.323,240.497 332.323,215.572 332.682,215.572 333.041,215.572 333.041,240.497 
		332.682,240.497 	"/>
	<polygon fill="none" stroke="#211915" stroke-width="0.25" stroke-miterlimit="10" points="332.323,240.497 332.323,215.572 
		332.682,215.572 333.041,215.572 333.041,240.497 332.682,240.497 	"/>
	<path fill="#211915" d="M350.462,235.115v0.547c0,0.297-0.048,0.657-0.138,1.081c-0.094,0.421-0.234,0.874-0.429,1.354
		s-0.485,0.925-0.874,1.336c-0.458,0.458-1.102,0.805-1.939,1.046c-0.837,0.242-1.641,0.36-2.418,0.36
		c-0.777,0-1.574-0.118-2.399-0.36c-0.824-0.241-1.449-0.588-1.886-1.046c-0.387-0.411-0.681-0.868-0.871-1.37
		c-0.2-0.505-0.325-0.978-0.396-1.424c-0.07-0.444-0.106-0.828-0.106-1.148v-0.584V220.85c0-0.914,0.133-1.729,0.397-2.45
		c0.261-0.721,0.679-1.333,1.248-1.834c0.231-0.206,0.513-0.39,0.842-0.55c0.331-0.16,0.683-0.29,1.045-0.394
		c0.369-0.102,0.736-0.181,1.098-0.242c0.368-0.055,0.711-0.085,1.028-0.085c0.297,0,0.638,0.024,1.011,0.069
		c0.38,0.047,0.755,0.121,1.134,0.224c0.376,0.103,0.73,0.228,1.063,0.376c0.331,0.151,0.609,0.324,0.84,0.532
		c1.168,1.029,1.75,2.479,1.75,4.354V235.115z M349.743,220.85c0-0.801-0.11-1.485-0.329-2.057
		c-0.219-0.571-0.495-1.054-0.839-1.439c-0.231-0.232-0.511-0.431-0.84-0.603c-0.333-0.17-0.675-0.311-1.028-0.426
		c-0.356-0.114-0.714-0.196-1.082-0.241c-0.366-0.048-0.687-0.068-0.961-0.068c-0.523,0-1.079,0.061-1.66,0.189
		c-0.582,0.125-1.114,0.368-1.594,0.718c-0.481,0.357-0.874,0.847-1.184,1.477c-0.31,0.627-0.462,1.443-0.462,2.45v14.092
		c-0.027,0.572,0,1.062,0.067,1.474c0.066,0.413,0.184,0.847,0.345,1.303c0.16,0.457,0.408,0.87,0.753,1.236
		c0.368,0.386,0.914,0.679,1.645,0.874c0.731,0.194,1.43,0.292,2.09,0.292c0.345,0,0.699-0.021,1.062-0.072
		c0.369-0.042,0.726-0.118,1.083-0.22c0.356-0.103,0.68-0.229,0.977-0.378c0.295-0.149,0.534-0.326,0.722-0.531
		c0.34-0.368,0.593-0.763,0.75-1.201c0.16-0.432,0.277-0.84,0.344-1.218c0.071-0.375,0.106-0.828,0.106-1.354L349.743,220.85z"/>
	<path fill="none" stroke="#211915" stroke-width="0.25" stroke-miterlimit="10" d="M350.462,235.115v0.547
		c0,0.297-0.048,0.657-0.138,1.081c-0.094,0.421-0.234,0.874-0.429,1.354s-0.485,0.925-0.874,1.336
		c-0.458,0.458-1.102,0.805-1.939,1.046c-0.837,0.242-1.641,0.36-2.418,0.36c-0.777,0-1.574-0.118-2.399-0.36
		c-0.824-0.241-1.449-0.588-1.886-1.046c-0.387-0.411-0.681-0.868-0.871-1.37c-0.2-0.505-0.325-0.978-0.396-1.424
		c-0.07-0.444-0.106-0.828-0.106-1.148v-0.584V220.85c0-0.914,0.133-1.729,0.397-2.45c0.261-0.721,0.679-1.333,1.248-1.834
		c0.231-0.206,0.513-0.39,0.842-0.55c0.331-0.16,0.683-0.29,1.045-0.394c0.369-0.102,0.736-0.181,1.098-0.242
		c0.368-0.055,0.711-0.085,1.028-0.085c0.297,0,0.638,0.024,1.011,0.069c0.38,0.047,0.755,0.121,1.134,0.224
		c0.376,0.103,0.73,0.228,1.063,0.376c0.331,0.151,0.609,0.324,0.84,0.532c1.168,1.029,1.75,2.479,1.75,4.354V235.115z
		 M349.743,220.85c0-0.801-0.11-1.485-0.329-2.057c-0.219-0.571-0.495-1.054-0.839-1.439c-0.231-0.232-0.511-0.431-0.84-0.603
		c-0.333-0.17-0.675-0.311-1.028-0.426c-0.356-0.114-0.714-0.196-1.082-0.241c-0.366-0.048-0.687-0.068-0.961-0.068
		c-0.523,0-1.079,0.061-1.66,0.189c-0.582,0.125-1.114,0.368-1.594,0.718c-0.481,0.357-0.874,0.847-1.184,1.477
		c-0.31,0.627-0.462,1.443-0.462,2.45v14.092c-0.027,0.572,0,1.062,0.067,1.474c0.066,0.413,0.184,0.847,0.345,1.303
		c0.16,0.457,0.408,0.87,0.753,1.236c0.368,0.386,0.914,0.679,1.645,0.874c0.731,0.194,1.43,0.292,2.09,0.292
		c0.345,0,0.699-0.021,1.062-0.072c0.369-0.042,0.726-0.118,1.083-0.22c0.356-0.103,0.68-0.229,0.977-0.378
		c0.295-0.149,0.534-0.326,0.722-0.531c0.34-0.368,0.593-0.763,0.75-1.201c0.16-0.432,0.277-0.84,0.344-1.218
		c0.071-0.375,0.106-0.828,0.106-1.354L349.743,220.85z"/>
	<path fill="#211915" d="M141.545,194.591c-3.021,1.351-6.953,2.563-11.796,3.634c-4.846,1.074-10.923,1.611-18.23,1.611
		c-8.896,0-17.594-0.855-26.093-2.563c-8.5-1.708-16.84-3.557-25.02-5.541c-3.574-0.952-7.269-1.866-11.08-2.739
		c-3.258-0.716-6.773-1.391-10.545-2.027c-3.774-0.632-7.369-1.03-10.782-1.189c0.792-1.113,1.648-2.204,2.561-3.278
		c0.912-1.071,1.887-2.281,2.92-3.634c1.668-2.221,3.336-4.804,5.003-7.745c1.668-2.937,3.316-5.935,4.945-8.994
		c1.626-3.059,3.137-6.036,4.528-8.936c1.388-2.898,2.639-5.5,3.753-7.806c0.237-0.555,0.396-1.052,0.476-1.487
		c0.077-0.437,0.119-0.854,0.119-1.252c0-0.952-0.318-1.787-0.952-2.5c-0.639-0.716-1.333-1.312-2.086-1.789
		c-0.756-0.476-1.489-0.851-2.204-1.133c-0.716-0.277-1.153-0.454-1.312-0.535c-1.112,3.337-2.483,7.289-4.109,11.856
		c-1.63,4.569-3.416,9.174-5.363,13.82c-1.945,4.645-4.05,9.054-6.314,13.223c-2.257,4.162-4.615,7.548-7.07,10.167
		c-0.037,0.011-0.076,0.023-0.138,0.023h-0.238c-0.238,0-0.952,0.08-2.144,0.237c-1.192,0.159-2.622,0.438-4.29,0.833
		c-1.669,0.4-3.435,0.895-5.303,1.492c-1.864,0.593-3.612,1.328-5.24,2.204c-1.629,0.872-2.96,1.886-3.992,3.036
		C0.517,194.732,0,196.023,0,197.451c0,0.637,0.297,1.232,0.893,1.788c0.596,0.556,2.046,0.833,4.349,0.833
		c0.954,0,2.084-0.137,3.396-0.416c1.31-0.277,2.761-0.773,4.349-1.489c1.59-0.716,3.296-1.728,5.123-3.039
		c1.827-1.31,3.812-2.998,5.956-5.063l0.119,0.596c0.159,0,0.398-0.043,0.715-0.118c0.239,0,0.517-0.02,0.834-0.062
		c0.317-0.041,0.755-0.059,1.312-0.059c1.031,0,2.421,0.078,4.17,0.239c1.745,0.156,3.91,0.517,6.493,1.071
		c2.581,0.555,5.619,1.312,9.115,2.264c3.493,0.955,7.544,2.223,12.152,3.815c6.115,2.301,11.635,4.128,16.561,5.477
		c4.925,1.353,10.486,2.583,16.68,3.696c6.197,1.111,12.432,1.667,18.707,1.667c0.953,0,2.779-0.059,5.48-0.177
		c2.7-0.121,5.759-0.461,9.174-1.012c3.414-0.559,6.929-1.392,10.545-2.504c3.612-1.111,6.77-2.702,9.471-4.767
		c0.874-0.554,1.668-1.269,2.384-2.142c0.634-0.637,1.191-1.451,1.669-2.443c0.475-0.994,0.713-2.126,0.713-3.396
		c0-0.953-0.16-1.904-0.477-2.86C147.817,191.334,145.038,193.082,141.545,194.591 M15.071,193.402
		c-1.31,0.952-2.699,1.787-4.169,2.501c-1.47,0.715-2.938,1.21-4.41,1.489c-1.469,0.279-2.758,0.18-3.872-0.297
		c0.239-1.352,1.192-2.426,2.861-3.219c1.667-0.794,3.456-1.429,5.36-1.904c2.226-0.557,4.727-0.952,7.507-1.192
		C17.474,191.571,16.382,192.447,15.071,193.402 M22.899,185.753l0.095-0.095C22.994,185.706,22.956,185.734,22.899,185.753"/>
	<path fill="#211915" d="M148.929,159.088c0.079-0.238,0.138-0.437,0.179-0.598c0.039-0.157,0.059-0.315,0.059-0.476
		c0-0.396-0.041-0.715-0.118-0.954c-0.24-0.792-0.657-1.486-1.253-2.084c-0.595-0.596-1.212-1.089-1.846-1.487
		c-0.637-0.399-1.211-0.735-1.728-1.014c-0.459-0.248-0.701-0.413-0.753-0.501c-0.211,0.04-0.436,0.187-0.676,0.501
		c-0.28,0.356-0.536,0.815-0.775,1.369c-0.237,0.557-0.417,1.113-0.536,1.667c-0.12,0.559-0.179,0.994-0.179,1.312
		c-0.636,1.113-1.351,2.402-2.145,3.871c-0.794,1.471-1.628,3.02-2.501,4.647c-0.875,1.628-1.768,3.24-2.681,4.827
		c-0.745,1.297-1.406,2.423-2.018,3.454h-0.425c-0.16,0-0.238,0.041-0.238,0.121c-0.078,0.245-0.159,0.473-0.239,0.71
		c-0.877,0.233-1.579,0.72-2.085,1.493c-0.595,0.914-0.894,1.966-0.894,3.155c0,0.585,0.093,1.194,0.256,1.82
		c-0.582,1.066-1.182,1.993-1.804,2.771c-1.748,2.185-3.178,3.273-4.289,3.273c-1.112,0-1.668-1.307-1.668-3.93
		c0-1.428,0.218-2.898,0.656-4.407c0.435-1.508,0.972-2.979,1.608-4.41c0.635-1.431,1.329-2.84,2.085-4.229
		c0.754-1.39,1.448-2.682,2.085-3.873h0.119c0.317-0.634,0.596-1.25,0.834-1.845c0.24-0.597,0.358-1.21,0.358-1.848
		c0-0.715-0.279-1.409-0.834-2.085c-0.558-0.673-1.192-1.311-1.907-1.909c-0.714-0.592-1.391-1.069-2.025-1.425
		c-0.637-0.36-0.995-0.539-1.073-0.539c-0.079,0.162-0.139,0.377-0.177,0.658c-0.041,0.278-0.141,0.533-0.299,0.773
		c-0.874-0.557-1.808-1.091-2.8-1.608c-0.995-0.515-2.364-0.777-4.11-0.777c-2.543,0-4.867,0.638-6.971,1.908
		c-2.105,1.272-3.932,2.901-5.48,4.886c-1.549,1.985-2.761,4.191-3.635,6.612c-0.872,2.423-1.309,4.746-1.309,6.968
		c0,0.496,0.035,1.046,0.1,1.639c-0.626,0.634-1.444,1.355-2.484,2.174c-0.555,0.478-1.231,1.014-2.024,1.61
		c-0.795,0.593-1.669,1.153-2.622,1.668c-0.952,0.517-1.946,0.972-2.978,1.37c-1.033,0.397-2.106,0.596-3.217,0.596
		c-2.145,0-3.932-0.792-5.362-2.382c-1.43-1.589-2.144-3.615-2.144-6.078c0-1.825,0.375-3.634,1.132-5.421
		c0.753-1.787,1.686-3.377,2.8-4.765c1.111-1.389,2.242-2.52,3.395-3.396c1.15-0.875,2.163-1.311,3.038-1.311
		c0.954,0,1.43,0.638,1.43,1.906c0,0.714-0.119,1.509-0.357,2.383c-0.161,0.794-0.477,1.71-0.954,2.742
		c-0.476,1.031-1.152,2.105-2.024,3.215c0.634,0.238,1.269,0.477,1.905,0.715c0.555,0.16,1.151,0.318,1.787,0.478
		c0.635,0.158,1.27,0.236,1.906,0.236c0.954,0,1.789-0.317,2.503-0.952c0.714-0.634,1.27-1.429,1.668-2.382
		c0.397-0.955,0.695-1.967,0.893-3.04c0.198-1.071,0.299-2.044,0.299-2.918c0-0.238-0.08-0.894-0.239-1.966
		c-0.16-1.073-0.517-2.184-1.073-3.335c-0.556-1.153-1.352-2.184-2.382-3.097c-1.033-0.914-2.425-1.37-4.17-1.37
		c-0.715,0-1.43,0.118-2.145,0.354c-4.926,1.669-8.52,4.489-10.783,8.46c-2.263,3.974-3.396,8.423-3.396,13.345
		c0,1.026,0.129,2.077,0.382,3.15c-0.801,1.681-1.643,3.075-2.525,4.179c-1.749,2.185-3.178,3.273-4.289,3.273
		c-1.114,0-1.67-1.307-1.67-3.93c0-1.826,0.398-3.752,1.193-5.778c0.793-2.026,1.685-3.973,2.68-5.839
		c0.993-1.863,1.886-3.576,2.681-5.122c0.794-1.548,1.191-2.801,1.191-3.754c0-0.716-0.278-1.43-0.834-2.146
		c-0.556-0.714-1.19-1.369-1.906-1.967c-0.715-0.592-1.391-1.069-2.025-1.425c-0.637-0.36-0.994-0.539-1.072-0.539
		c-0.161,0.477-0.358,1.053-0.596,1.727c-0.239,0.679-0.518,1.333-0.834,1.967c-0.318,0.795-0.677,1.592-1.072,2.383
		c-0.557,1.111-1.331,2.901-2.324,5.363c-0.993,2.461-1.768,5.082-2.323,7.862c-1.352,3.178-2.801,5.423-4.349,6.732
		c-1.549,1.311-2.88,1.965-3.991,1.965c-0.954,0-1.569-0.314-1.847-0.952c-0.278-0.635-0.417-1.43-0.417-2.383
		c0-1.985,0.476-4.15,1.429-6.494c0.954-2.34,2.026-4.606,3.218-6.793c1.191-2.18,2.264-4.189,3.216-6.016
		c0.954-1.823,1.43-3.175,1.43-4.05c0-0.716-0.28-1.431-0.833-2.146c-0.557-0.711-1.153-1.368-1.787-1.965
		c-0.637-0.594-1.251-1.072-1.848-1.427c-0.596-0.36-0.934-0.539-1.012-0.539c-0.16,0.478-0.378,1.055-0.656,1.727
		c-0.279,0.676-0.615,1.331-1.012,1.967c-0.399,0.795-0.835,1.59-1.311,2.383h0.119c-0.397,0.875-0.953,2.085-1.668,3.632
		c-0.716,1.552-1.429,3.298-2.144,5.244c-0.715,1.947-1.329,3.994-1.848,6.135c-0.514,2.146-0.774,4.174-0.774,6.078
		c0,2.86,0.656,5.046,1.966,6.552c1.311,1.51,2.719,2.263,4.23,2.263c1.031,0,2.025-0.217,2.978-0.653
		c0.954-0.436,1.826-0.992,2.622-1.668c0.793-0.674,1.507-1.431,2.145-2.265c0.633-0.833,1.192-1.647,1.667-2.442
		c0,2.781,0.695,5.024,2.085,6.73c1.389,1.71,2.878,2.565,4.468,2.565c1.747,0,3.316-0.774,4.707-2.323
		c1.389-1.551,2.56-3.278,3.514-5.184c0.087-0.176,0.148-0.334,0.232-0.506c0.386,0.882,0.858,1.711,1.437,2.471
		c0.873,1.153,1.965,2.105,3.276,2.859c1.309,0.754,2.878,1.132,4.705,1.132c1.747,0,3.634-0.436,5.661-1.308
		c2.026-0.876,3.949-2.007,5.777-3.396c1.488-1.132,2.81-2.391,3.982-3.761c0.252,1.088,0.612,2.163,1.143,3.224
		c0.634,1.27,1.527,2.342,2.679,3.217c1.151,0.875,2.64,1.308,4.467,1.308c1.351,0,2.483-0.159,3.397-0.474
		c0.913-0.317,1.707-0.696,2.382-1.133c0.674-0.437,1.231-0.913,1.668-1.43c0.437-0.515,0.814-0.97,1.133-1.368
		c0.555,2.461,1.447,4.188,2.68,5.183c1.231,0.99,2.443,1.489,3.634,1.489c1.747,0,3.316-0.774,4.707-2.323
		c1.21-1.35,2.245-2.844,3.125-4.465c0.391,0.689,0.872,1.344,1.462,1.963c0.873,0.913,1.966,1.666,3.276,2.26
		c1.31,0.598,2.879,0.895,4.706,0.895c1.587,0,3.175-0.259,4.766-0.774c1.587-0.514,3.018-1.291,4.289-2.324
		c1.271-1.029,2.303-2.323,3.098-3.871c0.793-1.548,1.191-3.315,1.191-5.304c-0.398-3.65-0.993-6.908-1.785-9.77
		C149.445,163.375,149.008,160.993,148.929,159.088 M116.164,172.669c-0.875,2.861-1.31,5.641-1.31,8.34
		c-0.954,1.192-2.026,2.146-3.218,2.859c-1.191,0.716-2.463,1.074-3.811,1.074c-1.354,0-2.405-0.236-3.158-0.714
		c-0.756-0.479-1.353-1.114-1.788-1.909c-0.437-0.793-0.715-1.627-0.834-2.503c-0.118-0.871-0.179-1.743-0.179-2.618
		c0-1.747,0.377-3.496,1.133-5.245c0.753-1.744,1.728-3.316,2.919-4.703c1.191-1.39,2.48-2.522,3.872-3.398
		c1.388-0.872,2.759-1.31,4.11-1.31c0.954,0,1.826,0.259,2.622,0.774c0.792,0.519,1.549,1.175,2.263,1.967
		C117.911,167.348,117.036,169.811,116.164,172.669 M145.116,179.816c-0.477,0.876-1.113,1.611-1.906,2.208
		c-0.794,0.593-1.649,1.052-2.562,1.37c-0.914,0.318-1.847,0.474-2.799,0.474c-0.954,0-1.868-0.195-2.741-0.593
		c-0.875-0.398-1.609-0.855-2.205-1.374c-0.595-0.512-1.071-1.07-1.429-1.667c-0.207-0.345-0.336-0.664-0.424-0.971
		c0.296-0.747,0.564-1.478,0.782-2.184c0.05-0.16,0.085-0.284,0.13-0.43c0.077-0.054,0.14-0.117,0.226-0.167
		c0.835-0.478,1.767-0.872,2.802-1.191c1.03-0.317,1.965-0.553,2.798-0.714c0.835-0.159,1.251-0.359,1.251-0.597
		c0-0.317-0.079-0.555-0.238-0.716c-0.081-0.078-0.16-0.118-0.237-0.118c0.077,0.08-0.379,0.118-1.371,0.118
		c-0.994,0-2.284,0.199-3.872,0.598c1.191-1.669,2.54-3.555,4.051-5.661c1.507-2.104,2.937-4.15,4.289-6.134
		c0.238,1.032,0.575,2.204,1.012,3.514c0.436,1.309,0.894,2.663,1.371,4.05c0.476,1.391,0.892,2.723,1.25,3.991
		c0.358,1.273,0.536,2.382,0.536,3.339C145.83,177.993,145.593,178.945,145.116,179.816"/>
	<path fill="#211915" d="M95.559,155.051c0,0.007,0.014,0.021,0.02,0.031c0.028-0.007,0.06-0.031,0.087-0.031H95.559z"/>
	<path fill="#211915" d="M400.084,173.743c-0.159-0.08-0.319-0.121-0.473-0.121l-0.244,0.121c-1.585,3.654-3.393,6.297-5.42,7.922
		c-2.026,1.629-3.713,2.444-5.061,2.444c-0.878,0-1.43-0.258-1.668-0.777c-0.237-0.513-0.358-1.25-0.358-2.202
		c0-2.701,0.494-5.103,1.488-7.21c0.993-2.103,2.206-4.426,3.637-6.97c0.551-1.033,0.833-1.984,0.833-2.859
		c0-1.588-0.616-2.898-1.847-3.932c-1.231-1.03-2.405-1.826-3.515-2.382c-0.082,0.476-0.238,0.995-0.475,1.549
		c-0.243,0.558-0.557,1.272-0.955,2.144c-0.398,0.876-0.877,2.049-1.431,3.516c-0.557,1.471-1.192,3.396-1.904,5.779
		c-1.59,5.084-3.337,8.658-5.247,10.722c-1.905,2.065-3.534,3.097-4.881,3.097c-0.955,0-1.572-0.338-1.847-1.011
		c-0.281-0.673-0.417-1.53-0.417-2.563c0-1.908,0.455-4.03,1.371-6.374c0.913-2.341,1.944-4.606,3.098-6.793
		c1.15-2.181,2.183-4.168,3.093-5.955c0.917-1.787,1.373-3.116,1.373-3.991c0-0.716-0.276-1.409-0.834-2.085
		c-0.292-0.355-0.597-0.69-0.911-1.012c1.949,0.005,3.749,0.043,5.38,0.119c1.707,0.08,3.234,0.199,4.587,0.356
		c2.303,0.159,4.169,0.377,5.599,0.655c1.431,0.278,2.565,0.558,3.399,0.834c0.834,0.279,1.444,0.517,1.847,0.715
		c0.392,0.199,0.713,0.298,0.95,0.298c0.16,0,0.301-0.159,0.417-0.477c0.121-0.316,0.199-0.673,0.237-1.072
		c0.039-0.396,0.078-0.772,0.122-1.132c0.039-0.356,0.057-0.574,0.057-0.655c0-1.192-0.237-2.164-0.712-2.918
		c-0.48-0.753-0.993-1.371-1.551-1.848c-0.635-0.555-1.353-0.994-2.142-1.312c-0.636-0.157-1.867-0.375-3.694-0.654
		c-1.829-0.278-4.171-0.416-7.031-0.416c-2.065,0-4.349,0.101-6.85,0.297c-2.502,0.2-5.226,0.536-8.164,1.01
		c0.398-0.711,0.717-1.346,0.955-1.904c0.237-0.554,0.359-1.151,0.359-1.786c0-0.793-0.282-1.568-0.834-2.324
		c-0.558-0.755-1.193-1.409-1.905-1.968c-0.717-0.554-1.455-1.011-2.206-1.367c-0.757-0.358-1.295-0.537-1.609-0.537
		c-0.559,1.748-1.073,3.235-1.547,4.467c-0.48,1.231-0.994,2.543-1.552,3.932c-0.557,1.393-1.071,2.605-1.546,3.634
		c-2.148,0.557-3.913,1.013-5.304,1.368c-1.391,0.361-2.637,0.54-3.752,0.54c-2.143,0-3.22-0.795-3.22-2.382
		c0-0.957,0.243-1.592,0.718-1.91c0.475-0.313,0.911-0.474,1.309-0.474c0.319,0,0.538,0.057,0.655,0.179
		c0.121,0.117,0.261,0.176,0.417,0.176c0.237,0,0.358-0.118,0.358-0.355c0-0.159-0.16-0.359-0.475-0.596
		c-0.32-0.241-0.834-0.36-1.552-0.36c-2.379,1.273-3.572,2.823-3.572,4.647c0,0.643,0.169,1.253,0.482,1.841
		c-0.079,0.218-0.151,0.43-0.245,0.661c-0.314,0.795-0.674,1.549-1.071,2.264c-0.398,0.876-0.873,1.709-1.43,2.505h-3.336
		c-0.557,0-1.154-0.021-1.789-0.061c-0.635-0.039-1.211-0.098-1.725-0.179c-0.519-0.079-0.955-0.159-1.31-0.237
		c-0.358-0.08-0.538-0.198-0.538-0.359c0.161-0.159,0.277-0.297,0.36-0.418c0.076-0.118,0.237-0.455,0.474-1.01
		c0-0.081-0.495-0.241-1.488-0.477c-0.993-0.239-2.167-0.517-3.515-0.835c-0.397-0.157-0.756-0.237-1.071-0.237h-0.718
		c-0.635,0-1.032,0.217-1.188,0.655c-0.159,0.436-0.242,1.091-0.242,1.963c0,0.876,0.242,1.928,0.718,3.16
		c0.475,1.231,1.386,2.284,2.739,3.157c-0.476,2.305-1.174,4.786-2.085,7.445c-0.047,0.135-0.088,0.251-0.132,0.381
		c-0.091,0.227-2.321,5.74-4.642,7.991c-0.032,0.03-0.062,0.056-0.096,0.086c-0.078,0.073-0.158,0.139-0.237,0.204
		c-0.58,0.493-1.273,1.04-2.102,1.646c-1.033,0.715-2.443,1.55-4.227,2.503c-1.789,0.951-3.559,1.429-5.304,1.429
		c-2.303,0-4.15-0.896-5.541-2.681c-1.392-1.786-2.085-3.794-2.085-6.016c0-1.431,0.238-2.86,0.718-4.292
		c0.392,0.4,1.027,0.739,1.905,1.014c0.872,0.278,1.944,0.418,3.214,0.418c1.828,0,3.578-0.337,5.245-1.015
		c1.668-0.672,3.118-1.587,4.349-2.739c1.232-1.151,2.201-2.482,2.919-3.992c0.713-1.508,1.071-3.098,1.071-4.765
		c0-1.668-0.698-3.216-2.085-4.647c-1.391-1.431-3.354-2.146-5.895-2.146c-2.07,0-4.053,0.597-5.958,1.79
		c-1.905,1.19-3.616,2.778-5.125,4.766c-1.507,1.984-2.7,4.228-3.572,6.73c-0.873,2.502-1.314,5.104-1.314,7.803
		c0,0.276,0.043,0.589,0.062,0.881c-0.551,0.393-1.163,0.794-1.904,1.204c-1.072,0.597-2.444,1.131-4.112,1.608
		c1.111-1.429,2.264-3.293,3.457-5.598c1.188-2.302,1.784-5.124,1.784-8.46c0-0.953-0.141-1.986-0.418-3.097
		c-0.274-1.11-0.754-2.146-1.429-3.098c-0.675-0.952-1.591-1.746-2.739-2.383c-1.154-0.636-2.604-0.953-4.348-0.953
		c-1.354,0-2.502,0.16-3.458,0.476c1.828-3.811,3.176-6.63,4.054-8.458c0.873-1.829,1.309-3.297,1.309-4.409
		c0-0.954-0.315-1.768-0.951-2.444c-0.64-0.673-1.352-1.251-2.148-1.726c-0.794-0.477-1.546-0.853-2.264-1.133
		c-0.713-0.279-1.148-0.454-1.309-0.534c0,0.475-0.102,1.071-0.3,1.785c-0.199,0.716-0.418,1.431-0.654,2.147l-0.834,2.501
		c-0.476,1.033-1.328,2.998-2.56,5.898c-1.232,2.898-2.462,6.135-3.694,9.711c-1.232,3.571-2.343,7.247-3.335,11.019
		c-0.994,3.774-1.489,7.014-1.489,9.709c0,0.418,0.016,0.809,0.041,1.188c-0.44,0.733-0.889,1.394-1.35,1.973
		c-1.75,2.184-3.18,3.273-4.291,3.273c-1.115,0-1.668-1.308-1.668-3.931c0-1.826,0.399-3.752,1.193-5.777
		c0.79-2.026,1.687-3.974,2.681-5.84c0.99-1.862,1.887-3.575,2.681-5.121c0.79-1.549,1.188-2.802,1.188-3.755
		c0-0.716-0.276-1.429-0.834-2.145c-0.557-0.714-1.187-1.369-1.906-1.967c-0.713-0.593-1.391-1.069-2.026-1.426
		c-0.634-0.359-0.994-0.538-1.07-0.538c-0.161,0.477-0.36,1.053-0.597,1.727c-0.238,0.678-0.519,1.333-0.834,1.966
		c-0.316,0.795-0.673,1.592-1.071,2.383c-0.558,1.112-1.334,2.902-2.323,5.363c-0.993,2.461-1.769,5.083-2.321,7.863
		c-1.354,3.178-2.803,5.423-4.355,6.731c-1.547,1.312-2.879,1.966-3.99,1.966c-0.949,0-1.57-0.314-1.847-0.952
		c-0.276-0.636-0.416-1.431-0.416-2.383c0-1.985,0.48-4.15,1.43-6.494c0.955-2.341,2.027-4.606,3.219-6.793
		c1.187-2.181,2.264-4.189,3.214-6.017c0.955-1.823,1.43-3.174,1.43-4.049c0-0.716-0.276-1.431-0.834-2.146
		c-0.557-0.712-1.154-1.368-1.783-1.966c-0.641-0.594-1.256-1.071-1.848-1.427c-0.596-0.36-0.936-0.539-1.013-0.539
		c-0.16,0.479-0.378,1.055-0.654,1.728c-0.282,0.676-0.621,1.331-1.013,1.967c-0.403,0.795-0.834,1.59-1.314,2.383h0.12
		c-0.397,0.875-0.954,2.085-1.668,3.631c-0.716,1.552-1.429,3.298-2.147,5.245c-0.712,1.947-1.328,3.994-1.842,6.134
		c-0.047,0.194-0.079,0.379-0.122,0.57c-0.351,0.061-0.8,0.131-1.371,0.208c-0.873,0.118-2.143,0.218-3.811,0.298
		c1.033-2.782,2.124-5.562,3.278-8.342c1.149-2.78,2.24-5.319,3.277-7.624c1.188-2.622,2.341-5.201,3.452-7.745
		c0.397-1.112,0.596-2.144,0.596-3.1c0-0.873-0.378-1.646-1.13-2.322c-0.755-0.673-1.609-1.251-2.564-1.727
		c-0.951-0.477-1.848-0.853-2.681-1.133c-0.834-0.276-1.329-0.457-1.489-0.535c0.078,0.078,0.122,0.319,0.122,0.714
		c0,0.477-0.082,1.033-0.242,1.669c-0.161,0.637-0.316,1.272-0.476,1.908c-0.237,0.715-0.475,1.426-0.713,2.143
		c-2.07,5.403-3.714,10.228-4.944,14.475c-1.232,4.252-2.168,7.924-2.802,11.021c-1.983-0.397-4.17-1.032-6.551-1.906
		c-2.384-0.873-4.687-2.103-6.912-3.692c2.065-4.368,3.932-8.599,5.599-12.69c1.668-4.089,3.336-7.925,5.003-11.498
		c0.398-0.872,0.698-1.648,0.897-2.324c0.194-0.673,0.296-1.329,0.296-1.965c0-0.953-0.315-1.786-0.951-2.502
		c-0.639-0.715-1.372-1.311-2.206-1.786c-0.834-0.478-1.629-0.834-2.384-1.071c-0.753-0.242-1.252-0.398-1.489-0.479
		c0,0.637-0.141,1.45-0.417,2.443c-0.277,0.994-0.577,2.008-0.893,3.038c-0.319,1.031-0.653,1.985-1.012,2.861
		c-0.359,0.875-0.577,1.506-0.655,1.905c-0.877,1.988-1.929,4.688-3.156,8.1c-1.236,3.419-2.802,7.271-4.708,11.558
		c-2.461-1.825-4.925-3.752-7.388-5.778c-2.462-2.023-4.945-3.891-7.446-5.601c-2.502-1.705-5.047-3.116-7.626-4.229
		c-2.579-1.11-5.221-1.667-7.922-1.667c-3.655,0-6.811,0.655-9.473,1.964c-2.661,1.314-4.867,3.099-6.613,5.363
		c-1.745,2.265-3.058,4.906-3.931,7.925c-0.873,3.016-1.309,6.236-1.309,9.65c0,4.05,0.712,7.545,2.143,10.484
		c1.43,2.94,3.335,5.342,5.72,7.208c2.381,1.865,5.124,3.236,8.222,4.111c3.099,0.873,6.273,1.309,9.531,1.309
		c4.286,0,8.019-0.695,11.199-2.085c3.176-1.388,5.973-3.196,8.397-5.42c2.425-2.223,4.529-4.765,6.318-7.626
		c1.788-2.86,3.475-5.796,5.061-8.816c0-0.077,0.043-0.156,0.121-0.237c2.225,1.35,4.625,2.581,7.209,3.69
		c2.579,1.114,4.863,1.668,6.85,1.668c-0.557,2.942-0.917,5.244-1.071,6.912c-0.16,0.876-0.238,1.667-0.238,2.383
		c0.156,0.715,0.495,1.292,1.014,1.73c0.513,0.435,1.051,0.771,1.605,1.011c0.634,0.316,1.352,0.556,2.147,0.715
		c0-1.349,0.237-3.097,0.712-5.241c0.475-2.148,1.149-4.53,2.027-7.15c2.33-0.133,4.14-0.386,5.495-0.742
		c-0.241,1.414-0.37,2.778-0.37,4.077c0,2.861,0.655,5.046,1.963,6.552c1.314,1.511,2.719,2.264,4.233,2.264
		c1.027,0,2.026-0.217,2.976-0.653c0.955-0.436,1.827-0.993,2.623-1.668c0.79-0.674,1.507-1.431,2.142-2.265
		c0.636-0.833,1.193-1.648,1.669-2.442c0,2.781,0.693,5.024,2.084,6.73c1.391,1.71,2.88,2.564,4.47,2.564
		c1.745,0,3.316-0.773,4.707-2.323c0.86-0.964,1.61-2.018,2.306-3.117c0.303,0.813,0.721,1.442,1.267,1.865
		c1.226,0.954,2.797,1.428,4.703,1.428c1.43,0,2.661-0.16,3.694-0.474c1.033-0.319,1.924-0.696,2.681-1.131
		c0.756-0.438,1.469-0.897,2.148-1.371c0.673-0.477,1.366-0.913,2.085-1.311c2.142-0.156,4.047-0.676,5.715-1.55
		c1.667-0.874,3.079-1.805,4.232-2.799c0.172-0.147,0.326-0.29,0.485-0.435c0.073,0.399,0.126,0.784,0.228,1.209
		c0.358,1.509,0.97,2.919,1.847,4.228c0.873,1.313,2.026,2.406,3.457,3.279c1.424,0.873,3.175,1.31,5.241,1.31
		c1.404,0,2.721-0.155,3.954-0.459c7.794-1.483,11.589-7.239,12.915-9.789c0.016-0.022,0.036-0.032,0.05-0.059
		c0.106-0.187,0.264-0.537,0.464-1.019c0.013-0.033,0.025-0.058,0.033-0.079c0.084-0.207,0.175-0.432,0.274-0.689
		c0.359-0.913,0.936-2.262,1.73-4.049c0.791-1.789,1.945-4.23,3.457-7.329c0.316,0.08,0.631,0.119,0.95,0.119h1.072
		c0.872,0,1.706-0.039,2.501-0.119c0.796-0.081,1.63-0.199,2.502-0.356c-0.872,2.145-1.649,4.449-2.322,6.908
		c-0.674,2.462-1.013,4.847-1.013,7.149c0,2.862,0.659,5.026,1.968,6.495c1.309,1.469,2.72,2.202,4.228,2.202
		c1.75,0,3.315-0.674,4.706-2.023c0.656-0.635,1.259-1.31,1.825-2.007c0.102,0.789,0.282,1.485,0.557,2.065
		c0.441,0.914,0.974,1.65,1.609,2.205c0.635,0.553,1.313,0.931,2.026,1.132c0.712,0.196,1.391,0.297,2.027,0.297
		c2.458,0,4.503-0.696,6.132-2.085c1.26-1.072,2.312-2.22,3.168-3.438c0.294,0.613,0.631,1.182,1.064,1.652
		c1.349,1.469,2.74,2.202,4.17,2.202c1.27,0,2.458-0.315,3.573-0.952c1.111-0.635,2.104-1.388,2.976-2.264
		c-0.474,1.193-0.872,2.146-1.187,2.861c-0.32,0.713-1.275,1.071-2.861,1.071c-0.557,0-1.095-0.02-1.609-0.058
		c-0.519-0.041-1.091-0.061-1.726-0.061c-0.48,0-1.231,0.078-2.263,0.237c-1.034,0.16-2.086,0.498-3.157,1.015
		c-1.075,0.515-2.008,1.25-2.801,2.203c-0.796,0.954-1.193,2.182-1.193,3.692c0,1.51,0.339,2.682,1.012,3.516
		c0.68,0.834,1.431,1.449,2.265,1.847c0.833,0.397,1.648,0.635,2.443,0.715c0.79,0.078,1.348,0.118,1.668,0.118
		c1.905,0,3.771-0.536,5.6-1.606c1.827-1.074,3.534-3.001,5.124-5.779c2.379,0.715,4.784,1.428,7.209,2.144
		c2.419,0.715,4.464,1.071,6.132,1.071c1.91,0,3.355-0.695,4.349-2.082c0.994-1.391,1.494-2.881,1.494-4.47
		c-0.403,0.08-0.999,0.121-1.79,0.121c-2.064,0-4.29-0.202-6.67-0.598c-2.386-0.399-5.009-0.912-7.864-1.548
		c0.237-0.556,0.514-1.112,0.834-1.668c0.315-0.554,0.596-1.15,0.834-1.789c0.711,0.875,1.488,1.473,2.323,1.789
		c0.833,0.316,1.686,0.475,2.558,0.475c2.541,0,4.606-0.715,6.196-2.141c1.59-1.431,2.841-2.979,3.752-4.648
		c0.917-1.667,1.533-3.216,1.848-4.647c0.282-1.263,0.465-1.935,0.559-2.082C400.48,174.075,400.351,173.945,400.084,173.743
		 M308.462,165.641c1.115-1.432,2.207-2.442,3.277-3.04c1.072-0.594,2.008-0.893,2.803-0.893c1.11,0,1.667,0.52,1.667,1.549
		c0,0.638-0.262,1.412-0.775,2.324c-0.519,0.915-1.193,1.768-2.027,2.562c-0.833,0.794-1.808,1.47-2.918,2.025
		c-1.111,0.558-2.265,0.834-3.458,0.834c-0.789,0-1.308-0.039-1.545-0.118C306.358,168.976,307.352,167.231,308.462,165.641
		 M208.026,173.743c-1.508,2.62-3.278,4.985-5.299,7.088c-2.027,2.108-4.349,3.794-6.972,5.065
		c-2.622,1.271-5.643,1.904-9.056,1.904c-2.86,0-5.497-0.355-7.921-1.071c-2.424-0.715-4.548-1.786-6.375-3.216
		c-1.829-1.431-3.258-3.235-4.291-5.421c-1.033-2.184-1.547-4.746-1.547-7.687c0-3.016,0.397-5.794,1.193-8.337
		c0.791-2.542,1.982-4.746,3.573-6.612c1.585-1.868,3.534-3.316,5.837-4.351c2.303-1.032,4.964-1.548,7.985-1.548
		c2.22,0,4.566,0.635,7.03,1.905c2.457,1.272,4.9,2.781,7.324,4.528c2.424,1.748,4.746,3.536,6.973,5.363
		c2.22,1.827,4.168,3.295,5.837,4.407C210.964,168.463,209.534,171.12,208.026,173.743 M279.632,184.465
		c-1.271,0-1.945-0.435-2.028-1.31c0-0.635,0.044-1.41,0.122-2.324c0.077-0.912,0.276-1.966,0.596-3.155
		c0.397,0.952,1.13,2.085,2.206,3.393c1.071,1.311,2.361,1.966,3.869,1.966C282.569,183.989,280.984,184.465,279.632,184.465
		 M288.328,180.177c-2.065-0.239-3.514-0.933-4.348-2.085c-0.834-1.151-1.251-2.52-1.251-4.111c0-1.034,0.198-2.245,0.596-3.634
		c0.397-1.389,0.955-2.68,1.668-3.873c0.717-1.191,1.628-2.202,2.739-3.036c1.115-0.837,2.386-1.251,3.816-1.251
		c0.314,0,0.615,0.057,0.892,0.177c0.275,0.119,0.538,0.377,0.775,0.774c0.238,0.397,0.437,0.993,0.596,1.789
		c0.155,0.793,0.238,1.866,0.238,3.216c0,2.304-0.596,4.587-1.789,6.851C291.072,177.258,289.758,178.984,288.328,180.177
		 M352.545,169.75c-0.713,2.346-1.309,4.589-1.784,6.733c-0.28,1.251-0.467,2.409-0.583,3.498c-0.479,0.643-0.959,1.213-1.443,1.684
		c-1.667,1.629-3.059,2.444-4.17,2.444c-0.635,0-1.052-0.298-1.25-0.896c-0.199-0.596-0.301-1.328-0.301-2.203
		c0-1.983,0.48-4.092,1.431-6.314c0.954-2.222,1.987-4.388,3.097-6.495c1.115-2.103,2.148-4.07,3.097-5.895
		c0.956-1.828,1.432-3.336,1.432-4.529c0-0.313-0.063-0.618-0.168-0.921c0.438,0.049,0.884,0.087,1.36,0.087
		c0.635,0,1.308-0.038,2.026-0.12c0.713-0.078,1.469-0.275,2.264-0.595c-0.878,2.066-1.75,4.25-2.622,6.554
		C354.052,165.084,353.263,167.409,352.545,169.75 M367.142,167.19c-0.678,1.907-1.25,3.891-1.73,5.957
		c-0.475,2.066-0.712,4.013-0.712,5.837c0,0.643,0.045,1.241,0.113,1.814c-0.833,1.077-1.704,1.97-2.616,2.652
		c-2.064,1.551-3.771,2.328-5.124,2.328c-1.27,0-1.905-0.754-1.905-2.265c0-1.431,0.359-3.278,1.071-5.542
		c0.718-2.262,1.629-4.706,2.744-7.324c1.11-2.623,2.322-5.264,3.632-7.924c1.309-2.663,2.52-5.105,3.635-7.329
		c2.061-0.156,4.01-0.298,5.838-0.417c0.108-0.007,0.21-0.01,0.318-0.017l-1.395,3.293c-0.475,0.876-1.071,2.106-1.784,3.693
		C368.51,163.535,367.817,165.283,367.142,167.19 M376.257,193.759c-0.161,0-0.358-0.021-0.596-0.06
		c-0.238-0.039-0.476-0.059-0.717-0.059c-0.636,0-1.072,0.039-1.309,0.119c-1.116,1.984-2.246,3.354-3.395,4.11
		c-1.154,0.754-2.244,1.133-3.277,1.133c-0.955,0-1.847-0.24-2.681-0.715c-0.833-0.476-1.251-1.234-1.251-2.264
		c0-1.432,0.578-2.444,1.726-3.038c1.154-0.596,2.4-0.894,3.753-0.894c0.872,0.078,1.769,0.217,2.68,0.416
		c0.913,0.197,1.809,0.376,2.682,0.537l2.981,0.715H376.257z"/>
	<path fill="#211915" d="M135.997,0.117c-0.637,0.593-1.189,1.271-1.696,1.971c-0.235,0.364-0.492,0.711-0.71,1.082
		c-0.206,0.379-0.451,0.732-0.622,1.128c-0.176,0.391-0.392,0.761-0.526,1.17c-0.14,0.404-0.324,0.789-0.427,1.203
		c-0.109,0.412-0.231,0.817-0.33,1.228l-0.21,1.251c-0.074,0.414-0.065,0.842-0.103,1.26l-0.043,0.627l0.017,0.632
		c0.016,0.42,0.011,0.839,0.042,1.257l0.169,1.25c0.04,0.418,0.126,0.829,0.239,1.237l0.3,1.225
		c0.102,0.408,0.275,0.799,0.408,1.199l0.424,1.191l-0.051-0.112c0.641,1.143,1.235,2.279,1.813,3.442
		c0.574,1.162,1.131,2.337,1.605,3.558c0.481,1.219,0.926,2.459,1.259,3.783c0.166,0.663,0.301,1.349,0.351,2.105
		c0.023,0.378,0.02,0.781-0.047,1.222c-0.076,0.445-0.226,0.962-0.618,1.465l0.166-0.259c-0.037,0.103-0.128,0.34-0.172,0.538
		c-0.06,0.203-0.094,0.422-0.136,0.636c-0.06,0.435-0.105,0.876-0.083,1.319c0.004,0.443,0.057,0.887,0.15,1.322
		c0.054,0.216,0.078,0.438,0.159,0.649l0.208,0.639l0.273,0.621c0.078,0.211,0.213,0.402,0.32,0.602
		c0.12,0.196,0.207,0.407,0.353,0.589l0.403,0.567c0.266,0.378,0.607,0.713,0.904,1.074l1.019,1.001l1.035,1.016l-1.022,0.975
		c-0.273,0.261-0.614,0.608-0.907,0.948c-0.308,0.336-0.593,0.702-0.886,1.058c-0.275,0.371-0.562,0.736-0.824,1.119
		c-0.253,0.389-0.534,0.761-0.767,1.164c-0.233,0.402-0.495,0.789-0.708,1.203c-0.215,0.412-0.443,0.819-0.649,1.237l-0.581,1.271
		c-0.186,0.427-0.337,0.868-0.508,1.302c-0.179,0.431-0.31,0.879-0.444,1.325c-0.125,0.448-0.297,0.886-0.385,1.345l-0.31,1.364
		c-0.11,0.454-0.147,0.922-0.225,1.382c-0.06,0.463-0.161,0.922-0.173,1.39l-0.104,1.4c-0.06,0.467-0.034,0.936-0.043,1.405
		l-0.008,1.411l-0.001,0.153l-0.001,0.005c-0.021,0.188-0.049,0.308-0.074,0.456c-0.025,0.142-0.061,0.271-0.091,0.408
		c-0.058,0.272-0.144,0.527-0.219,0.789c-0.168,0.515-0.344,1.023-0.57,1.508c-0.203,0.496-0.463,0.961-0.715,1.429
		c-0.256,0.465-0.565,0.899-0.846,1.346l-0.025,0.04l-0.037,0.043c-0.165,0.19-0.383,0.511-0.558,0.794
		c-0.176,0.299-0.355,0.603-0.504,0.925c-0.164,0.313-0.299,0.644-0.435,0.975c-0.146,0.328-0.243,0.676-0.368,1.014
		c-0.117,0.341-0.198,0.694-0.3,1.042c-0.108,0.347-0.17,0.707-0.257,1.061c-0.156,0.712-0.274,1.438-0.351,2.17l-0.105,1.102
		l-0.035,1.109c-0.046,0.743,0.023,1.485,0.036,2.231c0.005,0.373,0.064,0.742,0.093,1.115l0.095,1.12l0.317,2.233l-0.145,0.035
		l-0.465-2.216l-0.165-1.121c-0.048-0.374-0.126-0.745-0.15-1.122c-0.051-0.753-0.157-1.504-0.149-2.261l-0.02-1.133l0.051-1.133
		c0.042-0.753,0.125-1.507,0.249-2.252c0.072-0.373,0.117-0.748,0.212-1.116c0.095-0.366,0.169-0.738,0.28-1.1
		c0.12-0.36,0.211-0.728,0.353-1.079c0.133-0.356,0.266-0.71,0.43-1.053c0.314-0.691,0.671-1.36,1.144-1.975l-0.008,0.009
		c0.251-0.429,0.53-0.842,0.757-1.285c0.222-0.444,0.453-0.885,0.628-1.351c0.198-0.456,0.345-0.931,0.487-1.407
		c0.132-0.476,0.245-0.966,0.301-1.448l-0.001,0.016l-0.038-1.466c-0.006-0.489-0.048-0.978-0.002-1.466l0.082-1.466
		c0.009-0.49,0.107-0.972,0.164-1.458c0.075-0.483,0.111-0.974,0.219-1.451l0.31-1.435c0.087-0.483,0.261-0.943,0.387-1.416
		c0.136-0.47,0.268-0.941,0.45-1.396c0.174-0.458,0.329-0.923,0.519-1.374l0.595-1.343c0.211-0.441,0.446-0.872,0.667-1.309
		c0.22-0.437,0.489-0.848,0.731-1.274c0.24-0.427,0.53-0.822,0.793-1.235c0.272-0.408,0.57-0.797,0.858-1.194
		c0.604-0.773,1.23-1.524,1.942-2.216l0.001,0.221c-0.374-0.366-0.754-0.725-1.12-1.099c-0.331-0.407-0.698-0.784-0.997-1.215
		l-0.448-0.648c-0.16-0.209-0.264-0.453-0.398-0.679c-0.121-0.233-0.268-0.453-0.359-0.701l-0.307-0.726l-0.236-0.753
		c-0.089-0.249-0.12-0.513-0.178-0.77c-0.103-0.514-0.158-1.043-0.158-1.568c-0.01-1.055,0.146-2.107,0.56-3.101l0.004-0.009
		l0.014-0.019c0.35-0.465,0.406-1.124,0.37-1.74c-0.034-0.626-0.146-1.251-0.295-1.867c-0.296-1.234-0.711-2.44-1.166-3.629
		c-0.92-2.376-1.998-4.695-3.169-6.957l-0.005-0.009l-0.001-0.004l-0.405-1.258c-0.126-0.422-0.29-0.833-0.384-1.263l-0.274-1.294
		c-0.104-0.429-0.18-0.863-0.209-1.304l-0.134-1.316c-0.019-0.44-0.001-0.881-0.003-1.323l0.004-0.661l0.075-0.657
		c0.061-0.437,0.077-0.881,0.175-1.312l0.287-1.291c0.123-0.423,0.272-0.84,0.406-1.258c0.129-0.423,0.34-0.815,0.505-1.223
		c0.16-0.412,0.402-0.784,0.602-1.177c0.196-0.395,0.466-0.748,0.696-1.123c0.243-0.368,0.521-0.712,0.786-1.063
		c0.564-0.678,1.166-1.326,1.854-1.885L135.997,0.117z"/>
	<path fill="#211915" d="M135.496,128.009c0,0,0.224,0.16,0.608,0.371c0.185,0.117,0.428,0.229,0.685,0.359
		c0.25,0.143,0.576,0.221,0.869,0.365c0.337,0.06,0.651,0.209,1.011,0.23c0.177,0.019,0.349,0.057,0.529,0.067
		c0.186-0.023,0.364-0.009,0.547-0.01c0.067-0.001,0.234,0.009,0.221,0.002l0.336-0.046c0.23-0.037,0.465-0.067,0.703-0.085
		c0.475-0.047,0.957-0.107,1.436-0.171c0.482-0.037,0.961-0.085,1.429-0.145c0.465-0.069,0.931-0.083,1.37-0.146
		c0.437-0.056,0.859-0.109,1.26-0.16c0.391-0.07,0.761-0.123,1.096-0.193c0.658-0.152,1.174-0.33,1.48-0.565
		c0.15-0.116,0.28-0.23,0.337-0.326c0.068-0.099,0.104-0.151,0.104-0.151l0.149,0.017c0,0-0.014,0.065-0.038,0.186
		c-0.021,0.121-0.085,0.297-0.206,0.491c-0.233,0.402-0.749,0.825-1.435,1.162c-1.38,0.677-3.384,1.08-5.383,1.32
		c-0.502,0.051-1.005,0.09-1.5,0.12c-0.499,0.008-0.976,0.096-1.468,0.005c-0.239-0.031-0.473-0.062-0.703-0.093
		c-0.224-0.055-0.436-0.141-0.645-0.208c-0.432-0.11-0.77-0.372-1.114-0.537c-0.302-0.235-0.606-0.418-0.821-0.643
		c-0.229-0.209-0.419-0.402-0.559-0.576c-0.293-0.337-0.423-0.558-0.423-0.558L135.496,128.009z"/>
	<path fill="#211915" d="M150.456,127.401c0.099,0.215,0.216,0.363,0.358,0.521c0.157,0.153,0.266,0.317,0.427,0.453
		c0.163,0.135,0.327,0.264,0.476,0.401c0.139,0.141,0.323,0.252,0.498,0.366c0.364,0.215,0.646,0.486,1.036,0.667
		c0.367,0.2,0.732,0.391,1.077,0.605c0.367,0.19,0.758,0.353,1.132,0.53c0.386,0.161,0.725,0.388,1.121,0.536
		c0.786,0.305,1.558,0.626,2.313,0.981l0.05,0.023l0.059,0.029l2.952,1.456c1.001,0.461,1.972,0.985,2.975,1.432
		c0.492,0.249,0.989,0.479,1.49,0.704c0.501,0.212,0.995,0.473,1.504,0.662c0.255,0.092,0.506,0.226,0.761,0.314l0.774,0.285
		l0.792,0.251l0.826,0.192l0.015,0.149l-0.855,0.027l-0.85-0.07c-0.56-0.086-1.12-0.18-1.668-0.323
		c-1.099-0.27-2.178-0.614-3.235-1.013c-2.113-0.799-4.183-1.708-6.175-2.781l0.012,0.005l-2.359-1.137
		c-0.395-0.187-0.755-0.44-1.134-0.657c-0.372-0.228-0.754-0.44-1.117-0.683l-1.046-0.794c-0.365-0.244-0.648-0.589-0.97-0.885
		c-0.334-0.288-0.571-0.667-0.845-1.011c-0.129-0.177-0.217-0.385-0.328-0.577c-0.097-0.192-0.177-0.426-0.214-0.635
		L150.456,127.401z"/>
	<path fill="#211915" d="M134.602,94.297c0,0,0.038,0.104,0.11,0.301c0.083,0.192,0.137,0.498,0.202,0.896
		c0.069,0.401,0.149,0.906,0.133,1.449c0.013,0.553,0.023,1.187-0.011,1.88c-0.069,0.678-0.207,1.397-0.357,2.164
		c-0.074,0.385-0.151,0.78-0.229,1.184c-0.07,0.419-0.184,0.812-0.269,1.165c-0.197,0.762-0.326,1.58-0.51,2.394
		c-0.167,0.817-0.314,1.654-0.43,2.493c-0.152,0.834-0.262,1.673-0.355,2.5c-0.032,0.414-0.082,0.824-0.136,1.229
		c-0.032,0.407-0.065,0.807-0.096,1.201c-0.04,0.79-0.096,1.556-0.109,2.284c0.009,0.724-0.028,1.42,0.014,2.055
		c0.018,0.641,0.035,1.232,0.085,1.754c0.032,0.529,0.068,0.992,0.144,1.363c0.069,0.374,0.084,0.685,0.113,0.892
		c0.023,0.209,0.035,0.321,0.035,0.321l-0.139,0.055c0,0-0.143-0.416-0.394-1.144c-0.14-0.361-0.254-0.815-0.377-1.337
		c-0.064-0.26-0.132-0.537-0.205-0.83c-0.049-0.297-0.1-0.609-0.154-0.935c-0.127-0.649-0.182-1.362-0.253-2.116
		c-0.055-0.754-0.083-1.553-0.077-2.377c0.003-0.826,0.043-1.678,0.114-2.541c0.077-0.863,0.172-1.738,0.309-2.608
		c0.284-1.737,0.674-3.456,1.156-5.035c0.266-0.789,0.453-1.549,0.668-2.271c0.199-0.723,0.417-1.402,0.564-2.038
		c0.097-0.648,0.185-1.241,0.264-1.767c0.105-0.525,0.101-0.985,0.098-1.364c-0.008-0.379,0.029-0.677-0.016-0.881
		c-0.026-0.203-0.04-0.313-0.04-0.313L134.602,94.297z"/>
	<path fill="#211915" d="M140.754,134.3c-0.282-0.337-0.57-0.68-0.778-1.086c-0.109-0.202-0.213-0.409-0.285-0.667
		c-0.034-0.132-0.073-0.262-0.058-0.458c-0.003-0.084,0.024-0.2,0.076-0.32c0.03-0.11,0.159-0.242,0.268-0.337l-0.055,0.04
		l0.227-0.193l0.203-0.133l0.418-0.263c0.281-0.125,0.577-0.223,0.873-0.333c0.299-0.127,0.59-0.132,0.89-0.201
		c0.3-0.056,0.602-0.11,0.908-0.149l-0.089,0.004c0.43-0.065,0.828-0.113,1.244-0.156c0.413-0.034,0.829-0.08,1.252-0.073
		c0.421-0.005,0.852,0.013,1.292,0.047c0.447,0.044,0.896,0.095,1.404,0.246c0.242,0.063,0.522,0.192,0.798,0.339
		c0.296,0.19,0.612,0.402,0.888,0.849l0.609,0.986c0.197,0.309,0.415,0.602,0.602,0.872c0.095,0.135,0.193,0.255,0.268,0.339
		c0.039,0.046,0.063,0.06,0.066,0.071c-0.014-0.013-0.031-0.022-0.049-0.026c-0.065-0.041-0.188-0.087-0.286-0.09l0.093,0.018
		c0.012,0,0.002,0.004,0.044,0.007l0.094,0.012c0.062,0.016,0.126-0.002,0.189,0.004c0.141,0.02,0.21-0.045,0.327-0.036
		l-0.121,0.048c0.333-0.142,0.565-0.201,0.848-0.267c0.269-0.073,0.549-0.099,0.822-0.146c0.282-0.019,0.564-0.038,0.848-0.04
		c0.29,0.024,0.578,0.038,0.867,0.082c0.292,0.069,0.581,0.147,0.862,0.24c0.273,0.135,0.542,0.278,0.803,0.423l0.553,0.347
		l0.572,0.336c0.379,0.227,0.744,0.492,1.142,0.693c0.396,0.206,0.782,0.442,1.172,0.68c0.197,0.112,0.389,0.25,0.594,0.333
		l0.611,0.284c0.413,0.18,0.821,0.41,1.243,0.629l-0.027,0.147l-1.334-0.358l-0.667-0.179c-0.227-0.048-0.434-0.151-0.65-0.229
		l-1.284-0.5c-0.434-0.154-0.839-0.375-1.26-0.56c-0.423-0.187-0.827-0.393-1.242-0.601l-0.608-0.269l-0.651-0.139
		c-0.22-0.023-0.444-0.02-0.666-0.033c-0.223,0.014-0.445,0.04-0.667,0.064c-0.438,0.084-0.882,0.191-1.283,0.367l-0.011,0.005
		h-0.002c-0.24,0.042-0.478,0.14-0.722,0.127c-0.246,0.016-0.483,0.003-0.733-0.044l0.01,0.002c-0.279-0.068-0.405-0.234-0.56-0.374
		c-0.144-0.149-0.273-0.305-0.394-0.465c-0.246-0.318-0.46-0.655-0.67-0.993c-0.21-0.335-0.401-0.693-0.601-1.023
		c-0.081-0.145-0.227-0.254-0.376-0.356c-0.164-0.086-0.33-0.172-0.515-0.226c-0.726-0.244-1.519-0.312-2.298-0.356
		c-0.783-0.037-1.572-0.028-2.353,0.021h-0.011l-0.808,0.053c-0.266,0.032-0.546,0.001-0.803,0.085l-0.783,0.194
		c-0.233,0.119-0.507,0.197-0.706,0.349l-0.004,0.003l-0.005,0.004c-0.123,0.085-0.133,0.307-0.105,0.502
		c0.027,0.202,0.088,0.403,0.157,0.6c0.138,0.397,0.319,0.783,0.515,1.155L140.754,134.3z"/>
	<path fill="#211915" d="M173.567,137.058c0,0,0.088-0.065,0.253-0.188c0.165-0.119,0.39-0.32,0.695-0.54
		c0.304-0.216,0.655-0.515,1.06-0.837c0.391-0.338,0.833-0.718,1.315-1.134c0.474-0.418,0.98-0.87,1.5-1.362
		c0.537-0.47,1.029-1.043,1.589-1.569c0.531-0.557,1.039-1.169,1.57-1.765c0.49-0.631,1.039-1.235,1.457-1.927l0.707-0.984
		c0.2-0.347,0.399-0.694,0.597-1.037c0.181-0.352,0.427-0.671,0.586-1.025c0.169-0.352,0.335-0.699,0.499-1.041
		c0.356-0.676,0.591-1.371,0.846-2.029c0.125-0.332,0.246-0.654,0.365-0.965c0.09-0.323,0.177-0.633,0.261-0.931
		c0.145-0.603,0.378-1.151,0.482-1.655c0.101-0.51,0.188-0.953,0.26-1.32c0.064-0.369,0.157-0.662,0.202-0.863
		c0.05-0.201,0.077-0.308,0.077-0.308l0.15-0.006c0,0-0.009,0.431-0.025,1.185c-0.008,0.377-0.019,0.836-0.03,1.362
		c-0.014,0.525-0.145,1.108-0.225,1.75c-0.047,0.32-0.096,0.654-0.147,1c-0.071,0.34-0.182,0.685-0.276,1.044
		c-0.202,0.714-0.372,1.482-0.715,2.22c-0.302,0.753-0.604,1.535-1.043,2.268c-0.204,0.373-0.41,0.75-0.616,1.128l-0.73,1.071
		c-0.465,0.731-1.064,1.36-1.602,2.019c-0.569,0.631-1.166,1.22-1.752,1.777c-0.613,0.527-1.185,1.062-1.788,1.497
		c-0.579,0.463-1.157,0.859-1.695,1.219c-1.077,0.715-2.02,1.24-2.695,1.578c-0.67,0.347-1.073,0.507-1.073,0.507L173.567,137.058z"
		/>
	<path fill="#211915" d="M216.858,41.384c0.431-0.143,0.823-0.358,1.223-0.533l1.171-0.63c0.781-0.406,1.498-0.946,2.241-1.407
		c0.72-0.508,1.386-1.098,2.103-1.598c0.725-0.489,1.339-1.143,2.011-1.703c0.652-0.587,1.334-1.135,1.918-1.801l1.812-1.911
		c0.638-0.599,1.187-1.292,1.752-1.964l1.695-2.017l0.427-0.501l0.196-0.225l0.203-0.268l0.804-1.063l1.59-2.145
		c1.037-1.445,2.115-2.859,3.126-4.306c0.486-0.727,1.033-1.447,1.468-2.177l0.703-1.083c0.2-0.347,0.348-0.67,0.535-1.006
		c0.442-0.968,0.871-1.767,1.484-2.606c0.307-0.413,0.667-0.809,1.127-1.175c0.451-0.35,1.073-0.729,1.898-0.729l-0.113,0.009
		c0.475-0.023,0.624,0.081,0.867,0.146c0.251,0.066,0.39,0.181,0.561,0.284l0.489,0.324c0.139,0.118,0.246,0.247,0.369,0.37
		c0.228,0.254,0.495,0.495,0.678,0.762l0.515,0.808c0.158,0.273,0.361,0.532,0.48,0.814l0.373,0.841
		c0.224,0.566,0.547,1.1,0.683,1.687l0.489,1.731l0.242,0.86c0.084,0.286,0.12,0.583,0.182,0.872
		c0.235,1.163,0.436,2.33,0.617,3.493l-0.146,0.035l-0.94-3.383c-0.085-0.281-0.144-0.57-0.25-0.842l-0.305-0.822l-0.611-1.644
		c-0.178-0.559-0.501-1.053-0.745-1.582l-0.393-0.782c-0.124-0.264-0.321-0.483-0.478-0.727l-0.499-0.713
		c-0.174-0.23-0.404-0.409-0.602-0.616c-0.104-0.098-0.201-0.207-0.312-0.295l-0.364-0.217c-0.227-0.162-0.521-0.241-0.755-0.259
		l-0.012,0.001c-0.854,0.047-1.494,0.807-2.001,1.491c-0.507,0.722-0.906,1.527-1.256,2.332c-0.198,0.408-0.381,0.828-0.595,1.225
		l-0.702,1.152c-0.454,0.778-0.989,1.497-1.48,2.248c-1.018,1.476-2.063,2.933-3.139,4.365l-1.625,2.142
		c-0.544,0.708-1.084,1.431-1.699,2.086l-1.789,2.01c-0.597,0.668-1.173,1.359-1.847,1.954l-1.954,1.852
		c-0.628,0.644-1.357,1.171-2.055,1.734c-0.718,0.539-1.371,1.164-2.142,1.628c-0.755,0.486-1.49,1.004-2.261,1.463
		c-0.8,0.407-1.564,0.888-2.394,1.235c-0.414,0.173-0.823,0.36-1.242,0.523c-0.43,0.133-0.854,0.306-1.291,0.399L216.858,41.384z"/>
	<path fill="#211915" d="M244.649,65.183c0.005,2.342-0.128,4.68-0.326,7.015c-0.091,1.168-0.214,2.334-0.34,3.502
		c-0.134,1.166-0.279,2.333-0.486,3.491c-0.088,0.581-0.199,1.16-0.31,1.738c-0.116,0.578-0.208,1.16-0.346,1.735
		c-0.245,1.155-0.517,2.307-0.835,3.453c-0.14,0.576-0.327,1.143-0.505,1.712c-0.18,0.57-0.348,1.143-0.575,1.703
		c-0.221,0.56-0.408,1.13-0.66,1.685l-0.777,1.659l-0.287,0.34c0.207-0.182,0.247-0.262,0.325-0.502
		c0.025-0.102,0.041-0.233,0.021-0.347c-0.013-0.106-0.033-0.19-0.076-0.277c-0.061-0.136-0.127-0.2-0.166-0.24
		c-0.012-0.021-0.051-0.044-0.055-0.047c0.014,0.002,0.12,0.058,0.26,0.094c0.266,0.084,0.62,0.146,0.96,0.206
		c0.701,0.108,1.446,0.171,2.187,0.228l-0.287,0.012c0.315-0.041,0.485-0.042,0.715-0.029c0.216,0.008,0.432,0.044,0.647,0.089
		c0.431,0.095,0.86,0.282,1.245,0.545c0.192,0.129,0.358,0.294,0.53,0.449c0.146,0.171,0.287,0.349,0.419,0.531l0.305,0.567
		c0.083,0.19,0.137,0.379,0.204,0.571c0.072,0.193,0.097,0.375,0.132,0.56c0.03,0.184,0.077,0.375,0.087,0.553
		c0.014,0.35,0.061,0.72,0.036,1.055c-0.023,0.336-0.02,0.687-0.068,1.011l-0.137,0.978l0.022-0.228
		c-0.012,1.314-0.106,2.525-0.225,3.777c-0.119,1.24-0.296,2.473-0.489,3.703c-0.204,1.228-0.447,2.45-0.762,3.655
		c-0.303,1.208-0.641,2.408-1.028,3.594c-0.378,1.188-0.807,2.36-1.272,3.519c-0.462,1.16-0.987,2.294-1.531,3.42l-0.871,1.663
		l-0.948,1.622c-0.666,1.06-1.342,2.119-2.112,3.11c-0.724,1.026-1.589,1.946-2.436,2.869l-1.332,1.33l-1.414,1.241
		c-0.459,0.426-0.978,0.783-1.473,1.164c-0.5,0.377-0.993,0.761-1.53,1.084c-0.527,0.336-1.046,0.684-1.579,1.007l-1.645,0.892
		c-1.103,0.573-2.247,1.075-3.412,1.495l-1.76,0.596c-0.584,0.201-1.194,0.32-1.788,0.483c-1.186,0.344-2.406,0.524-3.612,0.742
		c-1.209,0.205-2.442,0.245-3.652,0.373l-0.018-0.148c1.197-0.202,2.409-0.328,3.595-0.593c1.183-0.274,2.376-0.508,3.527-0.901
		c0.577-0.189,1.169-0.332,1.733-0.558l1.695-0.664c0.574-0.201,1.105-0.502,1.655-0.755c0.542-0.271,1.105-0.505,1.619-0.829
		l1.575-0.913c0.508-0.329,1.003-0.683,1.505-1.022c0.511-0.329,0.979-0.715,1.451-1.095c0.47-0.384,0.961-0.742,1.394-1.168
		l1.332-1.239l1.249-1.323c0.795-0.914,1.592-1.833,2.288-2.826c0.735-0.966,1.377-1.998,2.012-3.03l0.901-1.581l0.828-1.621
		c0.516-1.098,1.013-2.205,1.45-3.338c0.441-1.13,0.846-2.276,1.201-3.436c0.723-2.317,1.278-4.684,1.707-7.074
		c0.409-2.39,0.71-4.811,0.772-7.229v-0.012l0.002-0.014l0.132-0.883c0.049-0.295,0.045-0.591,0.07-0.887
		c0.026-0.296-0.016-0.59-0.02-0.885c-0.007-0.148-0.045-0.289-0.065-0.435c-0.026-0.143-0.042-0.291-0.096-0.425
		c-0.074-0.284-0.198-0.542-0.34-0.793l-0.262-0.337c-0.109-0.091-0.205-0.198-0.322-0.277c-0.462-0.324-1.066-0.459-1.622-0.397
		l-0.02,0.003l-0.01-0.001c-0.768-0.069-1.535-0.141-2.299-0.269c-0.381-0.071-0.763-0.139-1.138-0.262
		c-0.188-0.057-0.375-0.132-0.556-0.24c-0.087-0.061-0.181-0.128-0.244-0.25c-0.072-0.13-0.023-0.312,0.091-0.402l-0.03,0.034
		l0.781-1.555c0.256-0.521,0.453-1.07,0.682-1.604c0.236-0.531,0.415-1.086,0.606-1.635c0.19-0.55,0.389-1.096,0.543-1.658
		c0.345-1.111,0.646-2.236,0.922-3.368c0.152-0.562,0.26-1.135,0.391-1.702c0.128-0.569,0.254-1.137,0.359-1.71
		c0.462-2.284,0.819-4.589,1.126-6.899c0.3-2.311,0.553-4.631,0.711-6.955L244.649,65.183z"/>
	<path fill="#211915" d="M142.86,137.57c0,0,0.83,0.55,2.074,1.375c0.298,0.193,0.62,0.401,0.962,0.623
		c0.335,0.22,0.71,0.418,1.061,0.66c0.37,0.212,0.752,0.431,1.14,0.654c0.381,0.23,0.778,0.441,1.187,0.625
		c0.783,0.441,1.616,0.768,2.397,1.109c0.389,0.176,0.785,0.291,1.155,0.447c0.372,0.151,0.733,0.264,1.072,0.38
		c0.34,0.098,0.652,0.252,0.937,0.327c0.286,0.075,0.538,0.168,0.749,0.237c0.422,0.149,0.673,0.256,0.673,0.256l0.007,0.151
		c0,0-0.247,0.001-0.679,0.002c-0.215,0.001-0.478,0.002-0.779,0.003c-0.302,0.008-0.638-0.052-1.008-0.079
		c-0.368-0.037-0.77-0.065-1.185-0.164c-0.413-0.097-0.865-0.139-1.304-0.294c-0.44-0.146-0.915-0.244-1.36-0.446
		c-0.453-0.182-0.918-0.355-1.354-0.594c-0.446-0.219-0.872-0.472-1.279-0.742c-0.421-0.246-0.792-0.554-1.17-0.823
		c-0.724-0.579-1.371-1.157-1.873-1.702c-1.027-1.071-1.549-1.923-1.549-1.923L142.86,137.57z"/>
	<path fill="#211915" d="M137.731,0.972c1.13,0.642,2.219,1.354,3.265,2.123c1.057,0.757,2.087,1.552,3.105,2.367
		c0.984,0.853,1.956,1.722,2.893,2.631c0.481,0.443,0.935,0.913,1.393,1.381c0.457,0.468,0.923,0.929,1.355,1.423l1.315,1.466
		l1.222,1.547c0.42,0.508,0.784,1.059,1.171,1.593c0.377,0.542,0.781,1.065,1.121,1.634l1.034,1.695
		c0.332,0.574,0.625,1.172,0.938,1.757c0.318,0.583,0.619,1.176,0.872,1.794l0.792,1.837l0.09,0.479
		c-0.007-0.17-0.014-0.156-0.043-0.248c-0.026-0.08-0.085-0.189-0.19-0.295c-0.115-0.116-0.249-0.198-0.391-0.235
		c-0.088-0.042-0.23-0.03-0.244-0.036c-0.052,0.005-0.077,0.017-0.06,0.007c0,0,0.005,0.007,0.041-0.014
		c0.048-0.016,0.124-0.055,0.211-0.107c0.167-0.097,0.362-0.232,0.556-0.387c0.194-0.141,0.392-0.328,0.589-0.49l0.289-0.24
		l0.284-0.067c0.621-0.144,1.232-0.193,1.845-0.259c0.479-0.049,1.072-0.106,1.605-0.144l3.289-0.233
		c1.096-0.076,2.194-0.165,3.296-0.194c1.11-0.032,2.181-0.106,3.322-0.104l1.691-0.011c0.556-0.024,1.157,0.026,1.704,0.1
		c1.119,0.136,2.232,0.316,3.323,0.639c1.087,0.316,2.174,0.696,3.161,1.329c0.482,0.323,0.961,0.71,1.259,1.248
		c0.297,0.54,0.339,1.189,0.156,1.724l-0.146-0.033c0.117-0.521,0.02-1.073-0.276-1.513c-0.301-0.438-0.746-0.766-1.216-1.027
		c-0.952-0.518-2.018-0.808-3.082-1.031c-1.07-0.218-2.157-0.351-3.247-0.432c-0.546-0.046-1.088-0.067-1.634-0.018l-1.637,0.089
		c-1.091,0.049-2.184,0.177-3.275,0.262l-3.275,0.297l-3.273,0.318c-1.092,0.126-2.195,0.185-3.242,0.409l0.061-0.032
		c-0.434,0.384-0.871,0.765-1.379,1.071c-0.251,0.154-0.527,0.291-0.86,0.326c-0.162,0.016-0.371-0.023-0.508-0.17
		c-0.137-0.144-0.186-0.312-0.197-0.494l0.01,0.052l-0.758-1.767c-0.236-0.597-0.521-1.172-0.822-1.739
		c-0.297-0.568-0.573-1.148-0.889-1.707l-0.985-1.654c-0.314-0.561-0.695-1.079-1.048-1.615c-0.364-0.53-0.703-1.076-1.101-1.581
		l-1.154-1.543l-1.22-1.492c-0.399-0.504-0.835-0.977-1.261-1.458c-0.427-0.481-0.851-0.963-1.302-1.421
		c-0.879-0.94-1.795-1.841-2.724-2.73c-1.873-1.762-3.83-3.44-5.906-4.954L137.731,0.972z"/>
	<path fill="#211915" d="M188.021,27.138c0.438-0.776,1.249-1.139,1.994-1.521c0.775-0.273,1.573-0.614,2.383-0.755
		c0.81-0.189,1.637-0.347,2.453-0.403c0.817-0.074,1.649-0.178,2.467-0.179l2.458,0.006c0.821,0.003,1.627,0.06,2.475,0.142
		c0.816,0.102,1.641,0.166,2.444,0.329c0.808,0.144,1.619,0.275,2.418,0.465c0.799,0.187,1.611,0.322,2.392,0.582l2.361,0.707
		c0.775,0.278,1.551,0.556,2.315,0.86c0.775,0.272,1.508,0.665,2.257,1.004c0.372,0.178,0.748,0.347,1.114,0.534
		c0.19,0.098,0.354,0.169,0.566,0.29l0.507,0.284c0.686,0.381,1.39,0.732,2.088,1.086c0.699,0.353,1.407,0.686,2.12,0.962
		c0.68,0.283,1.494,0.544,1.961,0.483l0.601-0.077l0.05,0.388c0.026,0.2,0.021,0.334,0.008,0.49
		c-0.004,0.152-0.037,0.298-0.065,0.441c-0.02,0.147-0.079,0.282-0.122,0.42c-0.039,0.139-0.103,0.268-0.171,0.394
		c-0.11,0.263-0.306,0.474-0.474,0.689c-0.18,0.207-0.401,0.373-0.593,0.553l-0.107-0.106c0.158-0.2,0.34-0.381,0.477-0.595
		c0.128-0.219,0.269-0.432,0.345-0.675c0.048-0.117,0.093-0.236,0.114-0.361c0.024-0.124,0.065-0.245,0.069-0.372
		c0.03-0.249,0.027-0.508-0.018-0.745l0.12,0.058c-0.84,0.259-1.651-0.001-2.424-0.197c-0.775-0.225-1.53-0.505-2.276-0.806
		c-0.746-0.302-1.482-0.628-2.209-0.971c-0.721-0.366-1.46-0.651-2.196-0.971c-0.74-0.303-1.46-0.658-2.226-0.894l-2.268-0.783
		l-2.309-0.654c-0.766-0.234-1.554-0.381-2.33-0.576c-0.776-0.198-1.564-0.337-2.35-0.488c-0.784-0.164-1.578-0.263-2.368-0.391
		c-0.79-0.106-1.587-0.193-2.387-0.225l-2.397-0.146c-0.8-0.045-1.599,0.01-2.399,0.01c-0.803-0.018-1.594,0.093-2.388,0.18
		c-0.801,0.049-1.566,0.289-2.341,0.466c-0.721,0.287-1.542,0.532-2.016,1.154L188.021,27.138z"/>
	<path fill="#211915" d="M252.426,27.314c-0.019,0.456,0.027,0.92-0.053,1.37l-0.169,1.368c-0.061,0.458-0.109,0.926-0.183,1.384
		l-0.312,1.333c-0.197,0.896-0.457,1.772-0.686,2.66c-0.12,0.442-0.224,0.894-0.389,1.317l-0.471,1.281
		c-0.304,0.858-0.649,1.701-0.991,2.546c-0.346,0.842-0.668,1.695-1.046,2.524l-0.271,0.609c-0.075,0.16-0.148,0.345-0.215,0.524
		c-0.132,0.362-0.237,0.732-0.306,1.092c-0.164,0.716-0.148,1.381,0.056,1.797l0.054,0.097c0.151,0.358,0.167,0.532,0.234,0.798
		c0.037,0.238,0.053,0.467,0.077,0.699c0.039,0.462-0.016,0.901-0.027,1.344c-0.075,0.429-0.149,0.854-0.246,1.271
		c-0.044,0.21-0.138,0.4-0.205,0.599l-0.22,0.588c-0.078,0.193-0.136,0.394-0.231,0.576l-0.311,0.534l-0.626,1.044
		c-0.482,0.647-0.989,1.265-1.518,1.847l-0.125-0.082c0.381-0.671,0.774-1.336,1.145-2.011l0.442-1.066
		c0.155-0.354,0.301-0.709,0.378-1.087l0.145-0.558c0.041-0.186,0.112-0.368,0.13-0.559l0.126-1.141
		c-0.022-0.38,0.002-0.765-0.059-1.14c-0.051-0.373-0.128-0.755-0.27-1.087l0.006,0.009c-0.492-0.825-0.508-1.814-0.364-2.71
		c0.075-0.454,0.192-0.897,0.338-1.331c0.144-0.435,0.344-0.851,0.51-1.265l2.114-4.97l0.531-1.242
		c0.181-0.412,0.309-0.845,0.466-1.266l0.903-2.544l0.452-1.272l0.369-1.296l0.365-1.298c0.136-0.429,0.204-0.877,0.306-1.315
		L252.426,27.314z"/>
	<path fill="#211915" d="M164.658,113.946c0.201-0.384,0.383-0.841,0.351-1.193c-0.008-0.083-0.036-0.149-0.071-0.173
		c-0.03-0.033-0.063-0.05-0.134-0.063c-0.122-0.036-0.326-0.011-0.513,0.017l0.176-0.061c-0.514,0.381-1.035,0.696-1.661,0.927
		c-0.311,0.112-0.647,0.204-1.032,0.214c-0.188,0.01-0.395-0.007-0.601-0.058c-0.211-0.043-0.415-0.14-0.615-0.255l-0.144-0.141
		l-0.334-0.269l-0.425-0.269c-0.133-0.099-0.307-0.155-0.46-0.232l-0.469-0.216l-1.011-0.307c-0.346-0.077-0.707-0.117-1.056-0.179
		c-0.345-0.076-0.709-0.084-1.074-0.088l-1.081-0.032c-0.731,0.069-1.461,0.116-2.187,0.159l0.294-0.064
		c-0.536,0.17-0.839,0.185-1.235,0.214c-0.377,0.03-0.727-0.019-1.094-0.034c-0.348-0.058-0.692-0.131-1.038-0.204
		c-0.336-0.09-0.65-0.219-0.975-0.335c-0.332-0.109-0.619-0.275-0.91-0.439l-0.87-0.494l-0.78-0.585l-0.388-0.295l-0.194-0.149
		l-0.049-0.037l-0.024-0.018l-0.003-0.002c-0.015-0.012,0.119,0.098,0.061,0.05l-0.006-0.004l-0.01-0.008l-0.072-0.052
		c-0.181-0.126-0.409-0.277-0.628-0.399c-0.22-0.128-0.446-0.248-0.674-0.35c-0.227-0.108-0.454-0.201-0.679-0.285
		c-0.226-0.085-0.448-0.146-0.668-0.196c-0.215-0.035-0.435-0.086-0.631-0.076c-0.207-0.021-0.384,0.021-0.569,0.038
		c-0.166,0.056-0.342,0.088-0.488,0.183c-0.167,0.052-0.29,0.208-0.448,0.299l0.16-0.181c0.145-0.227,0.105-0.173,0.13-0.252
		c0.009-0.036,0.018-0.036,0.014-0.058c-0.015-0.039,0.022,0.015,0,0.023c0.046,0.091,0.049,0.209,0.176,0.373l0.144,0.239
		l0.223,0.248c0.147,0.167,0.285,0.34,0.485,0.497l0.553,0.487c0.306,0.261,0.476,0.427,0.696,0.641
		c0.421,0.404,0.814,0.831,1.181,1.283c0.742,0.894,1.429,1.849,1.976,2.918c0.268,0.538,0.522,1.09,0.679,1.698
		c0.097,0.293,0.142,0.612,0.19,0.927c0.057,0.31,0.028,0.649,0.039,0.969l-0.003-0.081c0.018,0.207,0.027,0.485,0.068,0.732
		c0.027,0.258,0.073,0.513,0.133,0.767c0.047,0.258,0.113,0.512,0.199,0.759c0.082,0.249,0.142,0.512,0.258,0.747l0.318,0.732
		l0.409,0.685c0.242,0.491,0.632,0.867,0.956,1.322l-0.098,0.115l-0.592-0.59c-0.204-0.19-0.395-0.393-0.549-0.626l-0.496-0.673
		l-0.406-0.728c-0.148-0.239-0.238-0.503-0.351-0.757c-0.116-0.254-0.213-0.515-0.29-0.782c-0.184-0.527-0.297-1.072-0.378-1.629
		v-0.011c-0.029-0.268-0.01-0.54-0.075-0.804c-0.057-0.263-0.104-0.53-0.205-0.784c-0.162-0.517-0.417-1.004-0.686-1.476
		c-0.549-0.945-1.241-1.803-1.987-2.605c-0.753-0.814-1.543-1.526-2.425-2.225c-0.225-0.166-0.414-0.374-0.607-0.579l-0.291-0.305
		l-0.242-0.352c-0.178-0.223-0.281-0.501-0.381-0.774c-0.051-0.293-0.112-0.597,0.074-0.917l0.007-0.012l0.01-0.008
		c0.246-0.179,0.461-0.407,0.747-0.528c0.263-0.162,0.561-0.242,0.854-0.331c0.302-0.047,0.605-0.104,0.909-0.085
		c0.306-0.011,0.605,0.047,0.902,0.094c1.187,0.246,2.265,0.807,3.237,1.502l1.391,1.074l0.753,0.436
		c0.25,0.147,0.499,0.297,0.775,0.387c0.271,0.101,0.535,0.224,0.81,0.307l0.843,0.19c0.286,0.013,0.573,0.066,0.858,0.049
		c0.284-0.007,0.577-0.035,0.835-0.11l0.022-0.006l0.008-0.001c0.781-0.022,1.563-0.054,2.343-0.066l1.169,0.109
		c0.391,0.03,0.78,0.064,1.16,0.171c0.381,0.092,0.768,0.162,1.143,0.273l1.102,0.416l0.52,0.281
		c0.17,0.099,0.354,0.175,0.507,0.301c0.326,0.227,0.638,0.461,0.905,0.776l-0.019-0.019c0.222,0.158,0.495,0.232,0.773,0.244
		c0.279,0.015,0.564-0.034,0.84-0.109c0.552-0.15,1.084-0.404,1.571-0.704l0.021-0.013l0.018-0.001
		c0.232-0.007,0.472-0.022,0.706,0.078c0.115,0.04,0.233,0.128,0.293,0.243c0.075,0.112,0.086,0.249,0.08,0.368
		c-0.044,0.491-0.295,0.892-0.552,1.27L164.658,113.946z"/>
	<path fill="#211915" d="M151.984,123.057c0,0,0.083-0.912,0.674-2.057c0.143-0.289,0.311-0.598,0.533-0.898
		c0.212-0.308,0.449-0.635,0.756-0.929c0.306-0.293,0.619-0.628,1.058-0.873c0.405-0.264,0.929-0.491,1.535-0.62
		c0.153-0.022,0.331-0.019,0.495-0.023l0.25,0.003l0.031,0.001h0.007c0.122,0.003-0.157-0.004-0.127-0.003h0.01h0.037h0.068
		c0.048-0.006,0.095-0.008,0.145-0.008l0.218-0.032c0.289-0.061,0.617-0.068,0.916-0.167c0.304-0.081,0.617-0.142,0.907-0.248
		c0.295-0.085,0.583-0.175,0.846-0.279c0.257-0.109,0.537-0.162,0.754-0.262c0.216-0.099,0.427-0.168,0.598-0.232
		c0.349-0.122,0.573-0.183,0.573-0.183l0.108,0.106c0,0-0.145,0.138-0.398,0.38c-0.127,0.122-0.281,0.269-0.457,0.438
		c-0.172,0.176-0.409,0.323-0.649,0.505c-0.239,0.186-0.509,0.37-0.818,0.529c-0.296,0.183-0.624,0.343-0.979,0.48
		c-0.345,0.156-0.728,0.261-1.118,0.35c-0.38,0.107-0.844,0.096-1.182,0.126c-0.365,0.075-0.73,0.198-1.056,0.397
		c-0.334,0.181-0.639,0.409-0.924,0.64c-0.569,0.465-1.048,0.966-1.441,1.408c-0.791,0.885-1.246,1.535-1.246,1.535L151.984,123.057
		z"/>
	<path fill="#211915" d="M137.446,68.794c0,0,0.316-0.026,0.864,0.093c0.272,0.066,0.612,0.159,0.979,0.387
		c0.36,0.219,0.809,0.595,1.021,1.255c0.066,0.16,0.077,0.332,0.106,0.511c0.022,0.117,0.045,0.13,0.074,0.241
		c0.058,0.175,0.113,0.364,0.196,0.548c0.164,0.368,0.38,0.728,0.633,1.065c0.259,0.336,0.574,0.629,0.92,0.911
		c0.16,0.151,0.372,0.26,0.552,0.396c0.209,0.109,0.41,0.228,0.627,0.329c0.432,0.226,0.878,0.395,1.38,0.566
		c0.705,0.222,1.259,0.558,1.834,0.985c0.557,0.423,1.084,1.084,1.255,1.895c0.198,0.808-0.137,1.57-0.387,1.961
		c-0.475,0.726-0.871,1.333-1.148,1.756c-0.127,0.214-0.242,0.382-0.286,0.491c-0.037,0.123-0.06,0.079-0.063,0.098l-0.015,0.149
		c0.006-0.003-0.053,0.003-0.096-0.054c-0.041-0.056-0.049-0.126-0.047-0.198c0.004-0.151,0.046-0.35,0.114-0.598
		c0.137-0.494,0.382-1.18,0.707-1.99c0.157-0.395,0.279-0.844,0.134-1.296c-0.134-0.447-0.488-0.837-0.921-1.133
		c-0.437-0.293-0.949-0.524-1.479-0.681c-0.552-0.165-1.113-0.351-1.647-0.607c-0.526-0.269-1.029-0.591-1.463-0.983
		c-0.448-0.377-0.802-0.841-1.098-1.309c-0.295-0.475-0.484-0.984-0.608-1.477c-0.062-0.248-0.101-0.493-0.122-0.733
		c-0.025-0.248,0.003-0.474-0.039-0.665c-0.079-0.401-0.322-0.719-0.571-0.949c-0.254-0.232-0.515-0.39-0.734-0.508
		c-0.442-0.234-0.717-0.313-0.717-0.313L137.446,68.794z"/>
	<path fill="#211915" d="M134.969,65.464c0.202,0.233,0.428,0.391,0.664,0.559c0.207,0.182,0.482,0.296,0.707,0.441
		c0.114,0.072,0.258,0.108,0.382,0.162l0.381,0.148c0.246,0.101,0.537,0.123,0.785,0.208l0.382,0.104l0.407,0.042
		c0.269,0.027,0.534,0.054,0.792,0.098c0.129,0.022,0.272,0.005,0.406,0.009l0.407-0.001h0.803l-0.224,0.013
		c0.443-0.085,0.82-0.143,1.228-0.185c0.401-0.05,0.807-0.071,1.213-0.091c0.818-0.014,1.646,0.061,2.489,0.229
		c0.419,0.089,0.851,0.205,1.267,0.366c0.417,0.201,0.838,0.358,1.229,0.658c0.196,0.142,0.401,0.26,0.58,0.428l0.521,0.537
		c0.352,0.349,0.554,0.838,0.787,1.266c0.126,0.464,0.311,0.937,0.342,1.393c0.013,0.451,0.088,0.924,0.007,1.346l-0.232,1.293
		c-0.11,0.359-0.224,0.715-0.362,1.073c-0.252,0.717-0.519,1.428-0.853,2.124c-0.164,0.349-0.295,0.693-0.487,1.045
		c-0.17,0.352-0.393,0.678-0.584,1.003l-0.138-0.059l0.328-1.062c0.117-0.35,0.183-0.721,0.277-1.081
		c0.181-0.722,0.343-1.45,0.499-2.179l0.231-1.095l0.096-1.095c0.035-0.366-0.056-0.727-0.076-1.091
		c-0.04-0.361-0.21-0.691-0.306-1.039c-0.2-0.296-0.342-0.641-0.605-0.888l-0.383-0.382c-0.131-0.122-0.297-0.205-0.444-0.31
		c-0.287-0.222-0.64-0.338-0.967-0.493c-0.344-0.118-0.692-0.236-1.049-0.316c-0.717-0.164-1.454-0.237-2.192-0.261
		c-0.738-0.013-1.484,0.019-2.212,0.117l-0.016,0.002l-0.007-0.001l-0.888-0.096c-0.295-0.038-0.594-0.052-0.886-0.109l-0.865-0.227
		l-0.433-0.115l-0.41-0.181c-0.268-0.131-0.559-0.218-0.807-0.385l-0.377-0.244c-0.122-0.087-0.259-0.153-0.368-0.256
		c-0.215-0.208-0.467-0.379-0.651-0.618c-0.198-0.221-0.387-0.471-0.522-0.736L134.969,65.464z"/>
	<path fill="#211915" d="M134.433,64.732c0,0-0.04-0.042-0.107-0.146c-0.063-0.103-0.169-0.25-0.244-0.458
		c-0.088-0.208-0.168-0.467-0.225-0.777c-0.042-0.305-0.093-0.666-0.057-1.046c-0.001-0.393,0.079-0.797,0.181-1.227
		c0.129-0.41,0.243-0.875,0.473-1.281c0.204-0.427,0.423-0.859,0.718-1.246c0.268-0.414,0.6-0.76,0.909-1.14
		c0.33-0.363,0.705-0.656,1.05-0.979c0.336-0.335,0.751-0.548,1.108-0.808c0.357-0.262,0.736-0.465,1.101-0.638
		c0.356-0.188,0.71-0.336,1.035-0.471c0.317-0.146,0.642-0.22,0.918-0.304c0.273-0.084,0.525-0.134,0.728-0.181
		c0.411-0.085,0.653-0.111,0.653-0.111l0.076,0.128c0,0-0.75,0.485-1.858,1.228c-0.53,0.403-1.191,0.821-1.814,1.376
		c-0.314,0.272-0.664,0.527-0.966,0.843c-0.305,0.31-0.648,0.596-0.932,0.935c-0.288,0.335-0.611,0.643-0.858,1.001
		c-0.267,0.343-0.521,0.688-0.725,1.047c-0.233,0.344-0.387,0.713-0.558,1.051c-0.131,0.352-0.277,0.682-0.345,1.004
		c-0.174,0.635-0.22,1.186-0.197,1.567c0.018,0.385,0.08,0.59,0.08,0.59L134.433,64.732z"/>
	<path fill="#211915" d="M184.739,80.094c0,0,0.087-0.209,0.389-0.521c0.149-0.169,0.342-0.336,0.582-0.493
		c0.238-0.16,0.516-0.388,0.845-0.496c0.325-0.139,0.688-0.288,1.086-0.409c0.392-0.092,0.81-0.159,1.251-0.199
		c0.441-0.044,0.904-0.121,1.346-0.034c0.451,0.05,0.909,0.102,1.367,0.153c0.463,0.059,0.885,0.216,1.307,0.353
		c0.424,0.128,0.823,0.32,1.215,0.469c0.39,0.156,0.766,0.315,1.08,0.541c0.326,0.2,0.621,0.421,0.89,0.624
		c1.084,0.8,1.669,1.519,1.669,1.519l-0.067,0.134c0,0-0.782-0.322-1.954-0.804c-0.291-0.123-0.607-0.257-0.941-0.4
		c-0.326-0.162-0.704-0.235-1.081-0.35c-0.38-0.108-0.772-0.22-1.171-0.333c-0.398-0.113-0.799-0.246-1.219-0.278
		c-0.415-0.064-0.83-0.126-1.239-0.189c-0.407-0.087-0.813-0.085-1.205-0.075c-0.392,0.005-0.774-0.009-1.131,0.013
		c-0.355,0.058-0.689,0.114-0.998,0.165c-0.315,0.031-0.578,0.154-0.822,0.221c-0.245,0.074-0.455,0.144-0.61,0.234
		c-0.328,0.147-0.501,0.277-0.501,0.276L184.739,80.094z"/>
	<path fill="#211915" d="M183.809,86.139c0,0,0.327,0.093,0.888,0.213c0.559,0.122,1.352,0.264,2.263,0.336
		c0.455,0.034,0.943,0.032,1.438,0.012c0.498-0.025,1.004-0.122,1.507-0.225c0.254-0.044,0.494-0.157,0.744-0.229
		c0.246-0.086,0.477-0.221,0.726-0.307c0.477-0.235,0.939-0.518,1.366-0.871c0.11-0.074,0.219-0.146,0.397-0.283l0.444-0.314
		c0.295-0.199,0.594-0.388,0.899-0.564c0.605-0.364,1.265-0.626,1.929-0.854c0.667-0.227,1.388-0.335,2.112-0.301
		c0.354,0.01,0.733,0.076,1.07,0.201c0.175,0.076,0.325,0.13,0.502,0.226c0.1,0.064,0.197,0.127,0.293,0.189
		c0.401,0.228,0.774,0.462,1.112,0.629c0.339,0.175,0.641,0.315,0.893,0.406c0.126,0.039,0.243,0.078,0.347,0.119
		c0.1,0.026,0.184,0.03,0.258,0.043c0.153,0.019,0.235,0.029,0.235,0.029l0.05,0.143c0,0-0.084,0.014-0.242,0.044
		c-0.158,0.046-0.389,0.053-0.681,0.029c-0.29-0.023-0.641-0.077-1.028-0.186c-0.392-0.093-0.819-0.246-1.281-0.421
		c-0.461-0.216-0.931-0.348-1.487-0.318c-0.544,0.025-1.114,0.172-1.674,0.396c-0.56,0.226-1.116,0.519-1.657,0.854
		c-0.548,0.333-1.055,0.722-1.577,1.121c-0.525,0.409-1.107,0.739-1.705,1.006c-0.606,0.251-1.229,0.428-1.846,0.518
		c-1.236,0.179-2.408,0.033-3.364-0.213c-0.959-0.248-1.716-0.587-2.228-0.849c-0.512-0.264-0.786-0.454-0.786-0.454L183.809,86.139
		z"/>
	<path fill="#211915" d="M176.395,90.801c0.142-0.161,0.218-0.315,0.319-0.458c0.093-0.138,0.178-0.283,0.254-0.411l0.439-0.737
		c0.066-0.119,0.144-0.221,0.214-0.339c0.072-0.112,0.138-0.226,0.213-0.329c0.164-0.205,0.291-0.445,0.475-0.634l-0.098,0.15
		l0.284-0.423c0.093-0.132,0.188-0.265,0.308-0.38c0.23-0.237,0.462-0.477,0.758-0.668c0.147-0.096,0.281-0.203,0.455-0.277
		c0.08-0.04,0.165-0.079,0.253-0.116c0.09-0.034,0.162-0.078,0.265-0.101c0.19-0.048,0.383-0.102,0.591-0.104
		c0.209-0.012,0.433,0.033,0.61,0.133l0.019,0.148c-0.264,0.053-0.5,0.228-0.704,0.422c-0.209,0.193-0.403,0.406-0.582,0.634
		c-0.356,0.455-0.675,0.949-0.953,1.453l-0.007,0.012l-0.005,0.005c-0.203,0.248-0.409,0.494-0.624,0.73
		c-0.242,0.212-0.45,0.46-0.721,0.64c-0.131,0.092-0.253,0.199-0.392,0.28c-0.141,0.08-0.278,0.165-0.421,0.24
		c-0.299,0.125-0.6,0.248-0.931,0.278L176.395,90.801z"/>
	<path fill="#211915" d="M241.435,124.644c0,0-0.09,0.281-0.294,0.794c-0.211,0.509-0.511,1.267-1.008,2.172
		c-0.487,0.91-1.126,1.993-1.947,3.184c-0.817,1.193-1.822,2.494-3.079,3.772c-2.498,2.545-5.849,5.236-10.024,7.036
		c-2.072,0.917-4.321,1.604-6.64,2.107c-1.158,0.277-2.345,0.423-3.532,0.604c-1.194,0.099-2.393,0.251-3.596,0.253
		c-2.406,0.052-4.797-0.17-7.127-0.462c-2.333-0.36-4.566-0.748-6.764-1.386c-2.088-0.571-4.101-1.173-6.025-1.678
		c-1.923-0.51-3.753-0.945-5.449-1.298c-3.389-0.693-6.246-1.187-8.244-1.116c-0.995,0.029-1.768,0.148-2.254,0.347
		c-0.245,0.097-0.42,0.194-0.521,0.284c-0.111,0.08-0.168,0.121-0.168,0.121l-0.111-0.101c0,0,0.057-0.049,0.168-0.146
		c0.103-0.107,0.281-0.228,0.532-0.354c0.5-0.252,1.295-0.466,2.318-0.553c2.048-0.183,4.977,0.065,8.428,0.642
		c3.453,0.577,7.442,1.464,11.668,2.596c2.096,0.58,4.333,0.938,6.596,1.254c2.273,0.252,4.597,0.436,6.921,0.352
		c1.162,0.009,2.318-0.119,3.472-0.197c1.146-0.161,2.293-0.284,3.409-0.535c2.239-0.453,4.412-1.082,6.416-1.936
		c4.024-1.681,7.394-4.07,9.91-6.477c2.52-2.417,4.228-4.8,5.299-6.525c1.069-1.734,1.508-2.813,1.508-2.813L241.435,124.644z"/>
	<path fill="#211915" d="M248.765,70.911c0,0,0.349,0.123,0.977,0.409c0.626,0.291,1.538,0.74,2.627,1.437
		c1.097,0.683,2.374,1.602,3.756,2.765c0.703,0.57,1.397,1.235,2.143,1.926c0.708,0.726,1.448,1.498,2.159,2.357
		c1.448,1.695,2.897,3.642,4.223,5.832c0.7,1.074,1.296,2.246,1.95,3.422c0.307,0.598,0.587,1.217,0.871,1.842
		c0.295,0.62,0.569,1.256,0.814,1.909c0.256,0.65,0.514,1.304,0.774,1.963c0.226,0.671,0.454,1.347,0.682,2.028
		c0.49,1.351,0.818,2.766,1.229,4.171c0.354,1.418,0.668,2.858,0.974,4.304c0.235,1.458,0.545,2.914,0.719,4.385
		c0.344,2.945,0.545,5.9,0.619,8.808c0.005,1.453,0.06,2.896,0.024,4.318c-0.045,1.422-0.089,2.827-0.133,4.208
		c-0.178,2.756-0.401,5.418-0.777,7.917c-0.178,1.251-0.306,2.474-0.512,3.643c-0.202,1.169-0.397,2.299-0.585,3.384
		c-0.324,2.177-0.849,4.13-1.234,5.873c-0.379,1.745-0.79,3.246-1.123,4.483c-0.322,1.239-0.616,2.202-0.799,2.863
		c-0.188,0.659-0.288,1.01-0.288,1.01l-0.146-0.033c0,0,0.305-1.427,0.838-3.923c0.27-1.248,0.603-2.762,0.893-4.516
		c0.292-1.753,0.711-3.717,0.981-5.889c0.153-1.082,0.311-2.21,0.475-3.377c0.169-1.167,0.257-2.384,0.395-3.63
		c0.299-2.49,0.413-5.131,0.581-7.859c0.028-1.366,0.057-2.755,0.085-4.161c0.019-1.406-0.051-2.829-0.073-4.263
		c-0.105-2.867-0.336-5.773-0.707-8.663c-0.161-1.448-0.445-2.879-0.66-4.313c-0.284-1.422-0.577-2.838-0.908-4.233
		c-0.386-1.379-0.691-2.772-1.157-4.099c-0.216-0.668-0.431-1.332-0.644-1.992c-0.247-0.648-0.493-1.29-0.736-1.928
		c-0.459-1.287-1.065-2.489-1.587-3.693c-0.603-1.167-1.15-2.333-1.801-3.403c-1.229-2.179-2.586-4.128-3.952-5.83
		c-2.71-3.432-5.523-5.809-7.596-7.275c-2.084-1.473-3.431-2.04-3.431-2.04L248.765,70.911z"/>
	<path fill="#211915" d="M184.177,80.269c-0.005-0.002-0.016,0.03-0.117,0.057c-0.094,0.023-0.262,0.043-0.424-0.04
		c-0.188-0.08-0.343-0.21-0.501-0.409c-0.126-0.17-0.27-0.399-0.352-0.633c-0.078-0.217-0.181-0.494-0.208-0.745
		c-0.018-0.127-0.036-0.257-0.055-0.391c-0.011-0.068-0.017-0.136-0.017-0.204L182.5,77.8l-0.001-0.052l-0.001-0.026l-0.001-0.013
		v-0.006V77.7c0.006-0.035-0.014,0.069,0.014-0.077c0.017-0.22-0.007-0.473,0.039-0.708c0.03-0.241,0.061-0.484,0.091-0.727
		c0.054-0.238,0.107-0.476,0.16-0.709c0.04-0.234,0.141-0.456,0.199-0.674c0.14-0.432,0.301-0.825,0.46-1.158
		c0.15-0.322,0.274-0.59,0.361-0.778c0.031-0.089,0.064-0.163,0.058-0.223c-0.006-0.049-0.024-0.087-0.024-0.087l0.041-0.144
		c-0.011,0,0.195,0.037,0.299,0.275c0.113,0.222,0.173,0.552,0.184,0.941c0.021,0.782-0.098,1.803-0.261,2.815
		c-0.094,0.504-0.2,1.004-0.311,1.473c-0.063,0.451-0.121,0.898-0.103,1.265c0.007,0.184,0.041,0.347,0.064,0.49
		c0.052,0.131,0.09,0.252,0.161,0.316c0.055,0.076,0.133,0.104,0.168,0.116c0.036,0.016,0.077,0.013,0.075,0.013L184.177,80.269z"/>
</g>
<rect x="-208.284" y="-97.445" fill="none" width="841.89" height="595.28"/>
<rect x="-208.284" y="-97.445" fill="none" width="841.89" height="595.28"/>
</svg>
